<?xml version="1.0" encoding="UTF-8"?>
<svg id="Layer_1" xmlns="http://www.w3.org/2000/svg" version="1.1" viewBox="0 0 300 300">
  <!-- Generator: Adobe Illustrator 30.3.0, SVG Export Plug-In . SVG Version: 2.1.3 Build 182)  -->
  <defs>
    <style>
      .st0 {
        fill: #f3f2ef;
      }

      .st1 {
        fill: #2d2928;
      }
    </style>
  </defs>
  <rect class="st1" x="-.9" y="-.8" width="302" height="301.3"/>
  <path class="st0" d="M218.1,148.3c-9.3-4.4-9.5-7.3-1-13.2,14.9-10.3,23.7-25.4,23.7-42.9,0-32.6-30.8-55.4-74.7-55.4H43.1c-3.2,0-5.1,1.7-5.1,5.1v8.5c0,3.2,1.9,5.1,5.1,5.1h21.5c9.8,0,15.2,5.4,15.2,15.2v158.9c0,9.8-5.4,15.2-15.2,15.2h-21.5c-3.2,0-5.1,1.7-5.1,5.1v8.5c0,3.4,1.9,5.1,5.1,5.1h132.5c47.5,0,80.3-24.7,80.3-60.3s-14.7-43.8-37.9-54.6ZM119.5,70.6c0-10,5.4-15.2,15.2-15.2h27.4c21.3,0,34.7,12.7,34.7,33v14.2c0,20.3-13.4,33-34.7,33h-27.4c-9.8,0-15.2-5.2-15.2-15.2v-49.7ZM210.3,205.8c0,23.8-16.2,38.9-42.3,38.9h-33.3c-9.8,0-15.2-5.2-15.2-15.2v-60.2c0-10,5.4-15.2,15.2-15.2h33.3c26,0,42.3,15,42.3,38.9v12.8Z"/>
</svg>