<svg width="220" height="56" viewBox="0 0 220 56" fill="none" xmlns="http://www.w3.org/2000/svg">
<mask id="mask0_4158_130" style="mask-type:luminance" maskUnits="userSpaceOnUse" x="70" y="10" width="80" height="36">
<path d="M149.122 10H70V46H149.122V10Z" fill="white"/>
</mask>
<g mask="url(#mask0_4158_130)">
<mask id="mask1_4158_130" style="mask-type:luminance" maskUnits="userSpaceOnUse" x="70" y="10" width="45" height="36">
<path d="M70 10.4688H114.704V45.293H70V10.4688Z" fill="white"/>
</mask>
<g mask="url(#mask1_4158_130)">
<path fill-rule="evenodd" clip-rule="evenodd" d="M104.299 45.2527C100.699 45.2527 99.3938 40.0251 99.0378 37.9742L98.9191 37.0895C101.807 36.5668 104.735 36.2451 107.86 35.9234L108.058 37.0895C110.55 43.9257 114.704 45.0517 114.704 45.1321L104.299 45.2527ZM103.548 10.4688C103.548 10.4688 105.051 19.7176 106.436 27.8808C103.389 28.3633 100.541 29.0872 97.9696 29.9719L96.6245 19.798C96.6245 19.798 95.2795 20.4817 94.1718 22.3717C93.6575 23.2564 89.8201 29.3688 85.587 36.2451C81.7496 38.8991 79.6924 41.1109 79.6924 41.1109L83.0947 40.4272L80.0881 45.293H70L86.6156 19.3557C86.6156 19.3557 92.1146 10.5894 100.897 10.5894L103.548 10.4688Z" fill="#181614"/>
</g>
<mask id="mask2_4158_130" style="mask-type:luminance" maskUnits="userSpaceOnUse" x="110" y="10" width="40" height="36">
<path d="M110.271 10H149.081V45.8144H110.271V10Z" fill="white"/>
</mask>
<g mask="url(#mask2_4158_130)">
<path fill-rule="evenodd" clip-rule="evenodd" d="M129.142 45.8146C114.9 45.8146 111.063 39.4609 110.271 34.2334C113.318 33.8714 116.404 33.429 119.608 32.8258C120.874 36.9677 125.859 39.7424 134.522 37.5307L136.659 29.2871C137.806 28.7644 138.953 28.2416 140.1 27.6384C142.078 26.6734 144.175 25.2658 146.272 24.0595L141.841 43.5626C137.568 44.9298 134.008 45.8146 129.142 45.8146ZM111.181 25.6679C114.979 15.2528 128.786 6.84838 149.081 11.1511L147.459 18.3895C133.573 15.8158 124.909 19.8773 121.269 24.9844C117.551 25.2659 114.267 25.3864 111.181 25.6679Z" fill="#181614"/>
</g>
<path fill-rule="evenodd" clip-rule="evenodd" d="M106.434 27.8436C117.472 26.0743 130.21 26.8785 146.549 21.9727C119.094 39.7467 99.2339 30.6183 79.7305 41.0736C79.7305 41.0736 89.5811 30.4173 106.434 27.8436Z" fill="#181614"/>
</g>
</svg>
