<svg width="220" height="56" viewBox="0 0 220 56" fill="none" xmlns="http://www.w3.org/2000/svg">
<mask id="mask0_4158_54" style="mask-type:luminance" maskUnits="userSpaceOnUse" x="16" y="10" width="80" height="36">
<path d="M95.122 10H16V46H95.122V10Z" fill="white"/>
</mask>
<g mask="url(#mask0_4158_54)">
<mask id="mask1_4158_54" style="mask-type:luminance" maskUnits="userSpaceOnUse" x="16" y="10" width="45" height="36">
<path d="M16 10.4688H60.7039V45.293H16V10.4688Z" fill="white"/>
</mask>
<g mask="url(#mask1_4158_54)">
<path fill-rule="evenodd" clip-rule="evenodd" d="M50.2994 45.2527C46.6993 45.2527 45.3938 40.0251 45.0378 37.9742L44.9191 37.0895C47.807 36.5668 50.7345 36.2451 53.8599 35.9234L54.0577 37.0895C56.55 43.9257 60.7039 45.0517 60.7039 45.1321L50.2994 45.2527ZM49.5477 10.4688C49.5477 10.4688 51.051 19.7176 52.4357 27.8808C49.3895 28.3633 46.5411 29.0872 43.9696 29.9719L42.6245 19.798C42.6245 19.798 41.2795 20.4817 40.1718 22.3717C39.6575 23.2564 35.8201 29.3688 31.587 36.2451C27.7496 38.8991 25.6924 41.1109 25.6924 41.1109L29.0947 40.4272L26.0881 45.293H16L32.6156 19.3557C32.6156 19.3557 38.1146 10.5894 46.8971 10.5894L49.5477 10.4688Z" fill="#181614"/>
</g>
<mask id="mask2_4158_54" style="mask-type:luminance" maskUnits="userSpaceOnUse" x="56" y="10" width="40" height="36">
<path d="M56.2715 10H95.0807V45.8144H56.2715V10Z" fill="white"/>
</mask>
<g mask="url(#mask2_4158_54)">
<path fill-rule="evenodd" clip-rule="evenodd" d="M75.1422 45.8146C60.9002 45.8146 57.0628 39.4609 56.2715 34.2334C59.3177 33.8714 62.4035 33.429 65.6079 32.8258C66.8738 36.9677 71.8586 39.7424 80.5225 37.5307L82.6586 29.2871C83.8058 28.7644 84.9531 28.2416 86.1004 27.6384C88.0784 26.6734 90.1751 25.2658 92.2719 24.0595L87.841 43.5626C83.5685 44.9298 80.0082 45.8146 75.1422 45.8146ZM57.1815 25.6679C60.9792 15.2528 74.7861 6.84838 95.0807 11.1511L93.4587 18.3895C79.573 15.8158 70.9091 19.8773 67.2694 24.9844C63.5507 25.2659 60.2671 25.3864 57.1815 25.6679Z" fill="#181614"/>
</g>
<path fill-rule="evenodd" clip-rule="evenodd" d="M52.434 27.8436C63.4717 26.0743 76.2102 26.8785 92.5492 21.9727C65.0936 39.7467 45.2339 30.6183 25.7305 41.0736C25.7305 41.0736 35.5811 30.4173 52.434 27.8436Z" fill="#181614"/>
</g>
</svg>
