<svg xmlns:xlink="http://www.w3.org/1999/xlink" xmlns="http://www.w3.org/2000/svg" width="150" height="66" viewBox="0 0 150 66" fill="none">
<g clip-path="url(#clip0_4770_955)">
<mask id="mask0_4770_955" style="mask-type:luminance" maskUnits="userSpaceOnUse" x="36" y="15" width="45" height="35">
<path d="M36 15.4546H80.07V49.3115H36V15.4546Z" fill="white"/>
</mask>
<g mask="url(#mask0_4770_955)">
<path fill-rule="evenodd" clip-rule="evenodd" d="M69.813 49.2723C66.264 49.2723 64.977 44.1899 64.626 42.196L64.509 41.3359C67.356 40.8277 70.242 40.5149 73.323 40.2022L73.518 41.3359C75.975 47.9822 80.07 49.0769 80.07 49.1551L69.813 49.2723ZM69.072 15.4546C69.072 15.4546 70.554 24.4465 71.919 32.383C68.916 32.8521 66.108 33.5559 63.573 34.416L62.247 24.5247C62.247 24.5247 60.921 25.1894 59.829 27.0269C59.322 27.887 55.539 33.8296 51.366 40.5149C47.583 43.0952 45.555 45.2456 45.555 45.2456L48.909 44.5809L45.945 49.3115H36L52.38 24.0947C52.38 24.0947 57.801 15.5719 66.459 15.5719L69.072 15.4546Z" fill="#1A1A1A"/>
</g>
<mask id="mask1_4770_955" style="mask-type:luminance" maskUnits="userSpaceOnUse" x="75" y="15" width="39" height="35">
<path d="M75.7021 15H113.961V49.8196H75.7021V15Z" fill="white"/>
</mask>
<g mask="url(#mask1_4770_955)">
<path fill-rule="evenodd" clip-rule="evenodd" d="M94.3052 49.8197C80.2652 49.8197 76.4822 43.6425 75.7021 38.5602C78.7051 38.2083 81.7472 37.7782 84.9061 37.1917C86.1541 41.2186 91.0682 43.9162 99.6092 41.7659L101.715 33.7513C102.846 33.2431 103.977 32.7349 105.108 32.1484C107.058 31.2102 109.125 29.8417 111.192 28.6689L106.824 47.6303C102.612 48.9595 99.1022 49.8197 94.3052 49.8197ZM76.5992 30.2327C80.3431 20.1069 93.9542 11.9359 113.961 16.1191L112.362 23.1564C98.6732 20.6542 90.1322 24.6029 86.5441 29.5681C82.8781 29.8418 79.6411 29.959 76.5992 30.2327Z" fill="#1A1A1A"/>
</g>
<path fill-rule="evenodd" clip-rule="evenodd" d="M71.9187 32.3438C82.7998 30.6236 95.3577 31.4055 111.465 26.6359C84.3987 43.9162 64.8207 35.0414 45.5938 45.2063C45.5938 45.2063 55.3047 34.846 71.9187 32.3438Z" fill="#1A1A1A"/>
</g>
<defs>
<clipPath id="clip0_4770_955">
<rect width="78" height="35" fill="white" transform="translate(36 15)"/>
</clipPath>
</defs>
</svg>