<svg width="220" height="56" viewBox="0 0 220 56" fill="none" xmlns="http://www.w3.org/2000/svg">
<g clip-path="url(#clip0_4158_15)">
<path d="M89.4859 23.959C85.401 23.959 81.8038 26.6313 81.8038 31.3779C81.8038 36.1245 85.401 38.7406 89.4859 38.7406C93.5708 38.7406 97.1661 36.1245 97.1661 31.3779C97.1661 26.6313 93.5708 23.959 89.4859 23.959ZM89.4859 35.2712C87.3279 35.2712 86.2627 33.6498 86.2627 31.3761C86.2627 29.1024 87.3261 27.4248 89.4859 27.4248C91.6457 27.4248 92.7072 29.0734 92.7072 31.3761C92.7072 33.6788 91.6438 35.2712 89.4859 35.2712ZM103.576 27.4248C104.725 27.4248 105.761 28.0226 106.509 28.789L109.012 26.316C107.604 24.6674 105.215 23.9572 103.2 23.9572C101.185 23.9572 97.8482 24.8957 97.8482 27.9375C97.8482 29.6713 98.9702 30.7819 101.473 32.0029C103.402 32.9414 104.438 33.4523 104.438 34.3618C104.438 34.9578 103.977 35.2712 103.085 35.2712C102.135 35.2712 100.727 34.7024 99.5478 33.5103L96.9571 36.0666C98.51 37.8022 101.242 38.7406 103.459 38.7406C106.509 38.7406 108.896 37.2913 108.896 34.619C108.896 32.5718 107.371 31.3761 105.07 30.3543C102.769 29.3035 102.307 28.9611 102.307 28.2799C102.307 27.6839 103.055 27.4266 103.574 27.4266L103.576 27.4248ZM74.3674 23.9572C72.9006 23.9572 70.8875 24.4137 69.6499 26.0316V24.0985H65.191V43.3188H69.6499V36.6644C70.8875 38.2859 72.9006 38.7406 74.3674 38.7406C77.9939 38.7406 80.8412 35.9543 80.8412 31.3489C80.8412 26.4592 77.9939 23.9572 74.3674 23.9572ZM73.0161 35.2712C70.8582 35.2712 69.6499 33.6516 69.6499 31.3489C69.6499 29.0463 70.8582 27.4248 73.0161 27.4248C75.1741 27.4248 76.3823 29.0752 76.3823 31.3489C76.3823 33.6226 75.1723 35.2712 73.0161 35.2712ZM130.87 26.0316C129.633 24.4101 127.619 23.9572 126.153 23.9572C122.528 23.9572 119.679 26.4592 119.679 31.3489C119.679 32.32 119.809 33.2095 120.044 34.0085C119.811 34.3437 119.299 34.956 118.493 35.264C118.208 35.3582 117.948 35.4162 117.71 35.4397C117.644 35.4452 117.58 35.4506 117.512 35.4524C116.346 35.4669 115.768 34.5538 115.768 32.8001V27.5697H118.559V24.1003H115.768V20.4045L111.311 21.6455V24.1003H109.727V27.5697H111.311V33.1117C111.311 35.1915 111.707 36.601 112.44 37.4888C112.49 37.5576 113.682 39.1664 116.434 39.1664C117.713 39.1664 119.277 38.8167 121.085 37.4362C121.309 37.2768 121.51 37.1101 121.692 36.9434C121.697 36.9398 121.703 36.9344 121.707 36.9308C122.861 38.1011 124.418 38.7425 126.155 38.7425C127.621 38.7425 129.634 38.2859 130.872 36.6681C130.872 39.795 128.974 40.5342 127.075 40.5342C125.55 40.5342 123.997 40.1356 121.897 39.3403L119.941 42.1557C123.019 43.6322 125.953 44.0036 127.938 44.0036C131.736 44.0036 135.331 42.1557 135.331 36.8384V24.1039H130.872V26.037L130.87 26.0316ZM127.504 35.2712C125.348 35.2712 124.14 33.6516 124.14 31.3489C124.14 29.0463 125.348 27.4266 127.504 27.4266C129.66 27.4266 130.87 29.0752 130.87 31.3489C130.87 33.6226 129.662 35.2712 127.504 35.2712ZM20.4002 32.637C20.4002 30.4938 21.0621 28.8343 22.4262 27.5661C23.8251 26.2635 25.5944 25.6294 27.8348 25.6294V21.2813C24.4686 21.2813 21.6323 22.3303 19.4102 24.4011C17.1459 26.5063 16 29.2781 16 32.637C16 35.9959 17.1459 38.766 19.4083 40.873C21.6323 42.9438 24.4686 43.9927 27.833 43.9927V39.6447C25.5944 39.6447 23.8251 39.0106 22.4243 37.708C21.0603 36.438 20.3984 34.7785 20.3984 32.6352L20.4002 32.637ZM188.526 23.9572C187.059 23.9572 185.046 24.4137 183.809 26.0316V24.0985H179.348V43.3188H183.809V36.6644C185.046 38.2859 187.059 38.7406 188.526 38.7406C192.153 38.7406 194.998 35.9543 194.998 31.3489C194.998 26.4592 192.151 23.9572 188.526 23.9572ZM187.175 35.2712C185.019 35.2712 183.811 33.6516 183.811 31.3489C183.811 29.0463 185.019 27.4248 187.175 27.4248C189.331 27.4248 190.543 29.0752 190.543 31.3489C190.543 33.6226 189.333 35.2712 187.175 35.2712ZM155.031 23.959C150.946 23.959 147.349 26.6313 147.349 31.3779C147.349 36.1245 150.946 38.7406 155.031 38.7406C159.116 38.7406 162.713 36.1245 162.713 31.3779C162.713 26.6313 159.116 23.959 155.031 23.959ZM155.031 35.2712C152.873 35.2712 151.808 33.6498 151.808 31.3761C151.808 29.1024 152.873 27.4248 155.031 27.4248C157.189 27.4248 158.252 29.0734 158.252 31.3761C158.252 33.6788 157.189 35.2712 155.031 35.2712ZM36.2594 15.1197C34.0337 13.049 31.1992 12 27.833 12V16.3481C30.0716 16.3481 31.8409 16.9822 33.2398 18.2866C34.6039 19.5548 35.2657 21.2143 35.2657 23.3575C35.2657 25.5008 34.6039 27.1603 33.2398 28.4285C31.8409 29.7311 30.0716 30.367 27.833 30.367V34.715C31.201 34.715 34.0355 33.6643 36.2576 31.5935C38.5201 29.4883 39.666 26.7182 39.666 23.3575C39.666 19.9968 38.5201 17.2286 36.2576 15.1216L36.2594 15.1197ZM173.265 32.5138C173.265 34.6734 172.517 35.5847 170.79 35.5847C169.062 35.5847 168.316 34.6752 168.316 32.5138V24.1003H164.059L164.086 32.8001C164.086 36.8347 165.727 38.7406 169.121 38.7406C170.646 38.7406 172.344 38.1446 173.265 36.9797V38.5993H177.522V24.1021H173.265V32.5156V32.5138ZM145.369 23.9572C143.383 23.9572 142.263 24.8938 141.803 26.4863V24.0985H137.342V38.5957H141.803V32.7403C141.803 29.3017 142.377 27.4248 144.909 27.4248C146.117 27.4248 146.836 28.1368 147.037 28.3343L147.672 24.9518C147.21 24.3829 146.432 23.9572 145.369 23.9572ZM57.4081 23.9572C55.9414 23.9572 53.9282 24.4119 52.6907 26.0316V19.3718H48.2318V38.5957H52.6907V36.6626C53.9282 38.2841 55.9414 38.7388 57.4081 38.7388C61.0328 38.7388 63.882 36.2369 63.882 31.3471C63.882 26.7418 61.0328 23.9554 57.4081 23.9554V23.9572ZM56.0569 35.2712C53.8989 35.2712 52.6907 33.6226 52.6907 31.3489C52.6907 29.0752 53.8989 27.4248 56.0569 27.4248C58.2148 27.4248 59.4212 29.0463 59.4212 31.3489C59.4212 33.6516 58.213 35.2712 56.0569 35.2712Z" fill="#181614"/>
</g>
<defs>
<clipPath id="clip0_4158_15">
<rect width="179" height="32" fill="white" transform="translate(16 12)"/>
</clipPath>
</defs>
</svg>
