<svg width="220" height="56" viewBox="0 0 220 56" fill="none" xmlns="http://www.w3.org/2000/svg">
<g clip-path="url(#clip0_4158_116)">
<path d="M93.4859 23.959C89.401 23.959 85.8038 26.6313 85.8038 31.3779C85.8038 36.1245 89.401 38.7406 93.4859 38.7406C97.5708 38.7406 101.166 36.1245 101.166 31.3779C101.166 26.6313 97.5708 23.959 93.4859 23.959ZM93.4859 35.2712C91.3279 35.2712 90.2627 33.6498 90.2627 31.3761C90.2627 29.1024 91.3261 27.4248 93.4859 27.4248C95.6457 27.4248 96.7072 29.0734 96.7072 31.3761C96.7072 33.6788 95.6438 35.2712 93.4859 35.2712ZM107.576 27.4248C108.725 27.4248 109.761 28.0226 110.509 28.789L113.012 26.316C111.604 24.6674 109.215 23.9572 107.2 23.9572C105.185 23.9572 101.848 24.8957 101.848 27.9375C101.848 29.6713 102.97 30.7819 105.473 32.0029C107.402 32.9414 108.438 33.4523 108.438 34.3618C108.438 34.9578 107.977 35.2712 107.085 35.2712C106.135 35.2712 104.727 34.7024 103.548 33.5103L100.957 36.0666C102.51 37.8022 105.242 38.7406 107.459 38.7406C110.509 38.7406 112.896 37.2913 112.896 34.619C112.896 32.5718 111.371 31.3761 109.07 30.3543C106.769 29.3035 106.307 28.9611 106.307 28.2799C106.307 27.6839 107.055 27.4266 107.574 27.4266L107.576 27.4248ZM78.3674 23.9572C76.9006 23.9572 74.8875 24.4137 73.6499 26.0316V24.0985H69.191V43.3188H73.6499V36.6644C74.8875 38.2859 76.9006 38.7406 78.3674 38.7406C81.9939 38.7406 84.8412 35.9543 84.8412 31.3489C84.8412 26.4592 81.9939 23.9572 78.3674 23.9572ZM77.0161 35.2712C74.8582 35.2712 73.6499 33.6516 73.6499 31.3489C73.6499 29.0463 74.8582 27.4248 77.0161 27.4248C79.1741 27.4248 80.3823 29.0752 80.3823 31.3489C80.3823 33.6226 79.1723 35.2712 77.0161 35.2712ZM134.87 26.0316C133.633 24.4101 131.619 23.9572 130.153 23.9572C126.528 23.9572 123.679 26.4592 123.679 31.3489C123.679 32.32 123.809 33.2095 124.044 34.0085C123.811 34.3437 123.299 34.956 122.493 35.264C122.208 35.3582 121.948 35.4162 121.71 35.4397C121.644 35.4452 121.58 35.4506 121.512 35.4524C120.346 35.4669 119.768 34.5538 119.768 32.8001V27.5697H122.559V24.1003H119.768V20.4045L115.311 21.6455V24.1003H113.727V27.5697H115.311V33.1117C115.311 35.1915 115.707 36.601 116.44 37.4888C116.49 37.5576 117.682 39.1664 120.434 39.1664C121.713 39.1664 123.277 38.8167 125.085 37.4362C125.309 37.2768 125.51 37.1101 125.692 36.9434C125.697 36.9398 125.703 36.9344 125.707 36.9308C126.861 38.1011 128.418 38.7425 130.155 38.7425C131.621 38.7425 133.634 38.2859 134.872 36.6681C134.872 39.795 132.974 40.5342 131.075 40.5342C129.55 40.5342 127.997 40.1356 125.897 39.3403L123.941 42.1557C127.019 43.6322 129.953 44.0036 131.938 44.0036C135.736 44.0036 139.331 42.1557 139.331 36.8384V24.1039H134.872V26.037L134.87 26.0316ZM131.504 35.2712C129.348 35.2712 128.14 33.6516 128.14 31.3489C128.14 29.0463 129.348 27.4266 131.504 27.4266C133.66 27.4266 134.87 29.0752 134.87 31.3489C134.87 33.6226 133.662 35.2712 131.504 35.2712ZM24.4002 32.637C24.4002 30.4938 25.0621 28.8343 26.4262 27.5661C27.8251 26.2635 29.5944 25.6294 31.8348 25.6294V21.2813C28.4686 21.2813 25.6323 22.3303 23.4102 24.4011C21.1459 26.5063 20 29.2781 20 32.637C20 35.9959 21.1459 38.766 23.4083 40.873C25.6323 42.9438 28.4686 43.9927 31.833 43.9927V39.6447C29.5944 39.6447 27.8251 39.0106 26.4243 37.708C25.0603 36.438 24.3984 34.7785 24.3984 32.6352L24.4002 32.637ZM192.526 23.9572C191.059 23.9572 189.046 24.4137 187.809 26.0316V24.0985H183.348V43.3188H187.809V36.6644C189.046 38.2859 191.059 38.7406 192.526 38.7406C196.153 38.7406 198.998 35.9543 198.998 31.3489C198.998 26.4592 196.151 23.9572 192.526 23.9572ZM191.175 35.2712C189.019 35.2712 187.811 33.6516 187.811 31.3489C187.811 29.0463 189.019 27.4248 191.175 27.4248C193.331 27.4248 194.543 29.0752 194.543 31.3489C194.543 33.6226 193.333 35.2712 191.175 35.2712ZM159.031 23.959C154.946 23.959 151.349 26.6313 151.349 31.3779C151.349 36.1245 154.946 38.7406 159.031 38.7406C163.116 38.7406 166.713 36.1245 166.713 31.3779C166.713 26.6313 163.116 23.959 159.031 23.959ZM159.031 35.2712C156.873 35.2712 155.808 33.6498 155.808 31.3761C155.808 29.1024 156.873 27.4248 159.031 27.4248C161.189 27.4248 162.252 29.0734 162.252 31.3761C162.252 33.6788 161.189 35.2712 159.031 35.2712ZM40.2594 15.1197C38.0337 13.049 35.1992 12 31.833 12V16.3481C34.0716 16.3481 35.8409 16.9822 37.2398 18.2866C38.6039 19.5548 39.2657 21.2143 39.2657 23.3575C39.2657 25.5008 38.6039 27.1603 37.2398 28.4285C35.8409 29.7311 34.0716 30.367 31.833 30.367V34.715C35.201 34.715 38.0355 33.6643 40.2576 31.5935C42.5201 29.4883 43.666 26.7182 43.666 23.3575C43.666 19.9968 42.5201 17.2286 40.2576 15.1216L40.2594 15.1197ZM177.265 32.5138C177.265 34.6734 176.517 35.5847 174.79 35.5847C173.062 35.5847 172.316 34.6752 172.316 32.5138V24.1003H168.059L168.086 32.8001C168.086 36.8347 169.727 38.7406 173.121 38.7406C174.646 38.7406 176.344 38.1446 177.265 36.9797V38.5993H181.522V24.1021H177.265V32.5156V32.5138ZM149.369 23.9572C147.383 23.9572 146.263 24.8938 145.803 26.4863V24.0985H141.342V38.5957H145.803V32.7403C145.803 29.3017 146.377 27.4248 148.909 27.4248C150.117 27.4248 150.836 28.1368 151.037 28.3343L151.672 24.9518C151.21 24.3829 150.432 23.9572 149.369 23.9572ZM61.4081 23.9572C59.9414 23.9572 57.9282 24.4119 56.6907 26.0316V19.3718H52.2318V38.5957H56.6907V36.6626C57.9282 38.2841 59.9414 38.7388 61.4081 38.7388C65.0328 38.7388 67.882 36.2369 67.882 31.3471C67.882 26.7418 65.0328 23.9554 61.4081 23.9554V23.9572ZM60.0569 35.2712C57.8989 35.2712 56.6907 33.6226 56.6907 31.3489C56.6907 29.0752 57.8989 27.4248 60.0569 27.4248C62.2148 27.4248 63.4212 29.0463 63.4212 31.3489C63.4212 33.6516 62.213 35.2712 60.0569 35.2712Z" fill="#181614"/>
</g>
<defs>
<clipPath id="clip0_4158_116">
<rect width="179" height="32" fill="white" transform="translate(20 12)"/>
</clipPath>
</defs>
</svg>
