<svg xmlns:xlink="http://www.w3.org/1999/xlink" xmlns="http://www.w3.org/2000/svg" width="179" height="32" viewBox="0 0 179 32" fill="none">
<path d="M73.4859 11.959C69.401 11.959 65.8038 14.6313 65.8038 19.3779C65.8038 24.1245 69.401 26.7406 73.4859 26.7406C77.5708 26.7406 81.1661 24.1245 81.1661 19.3779C81.1661 14.6313 77.5708 11.959 73.4859 11.959ZM73.4859 23.2712C71.3279 23.2712 70.2627 21.6498 70.2627 19.3761C70.2627 17.1024 71.3261 15.4248 73.4859 15.4248C75.6457 15.4248 76.7072 17.0734 76.7072 19.3761C76.7072 21.6788 75.6438 23.2712 73.4859 23.2712ZM87.5758 15.4248C88.7254 15.4248 89.7613 16.0226 90.5093 16.789L93.0119 14.316C91.6039 12.6674 89.2149 11.9572 87.2 11.9572C85.185 11.9572 81.8482 12.8957 81.8482 15.9375C81.8482 17.6713 82.9702 18.7819 85.4729 20.0029C87.4016 20.9414 88.4375 21.4523 88.4375 22.3618C88.4375 22.9578 87.9773 23.2712 87.0845 23.2712C86.1347 23.2712 84.7267 22.7024 83.5478 21.5103L80.9571 24.0666C82.51 25.8022 85.2419 26.7406 87.4585 26.7406C90.5093 26.7406 92.8964 25.2913 92.8964 22.619C92.8964 20.5718 91.371 19.3761 89.0701 18.3543C86.7691 17.3035 86.3071 16.9611 86.3071 16.2799C86.3071 15.6839 87.0551 15.4266 87.574 15.4266L87.5758 15.4248ZM58.3674 11.9572C56.9006 11.9572 54.8875 12.4137 53.6499 14.0316V12.0985H49.191V31.3188H53.6499V24.6644C54.8875 26.2859 56.9006 26.7406 58.3674 26.7406C61.9939 26.7406 64.8412 23.9543 64.8412 19.3489C64.8412 14.4592 61.9939 11.9572 58.3674 11.9572ZM57.0161 23.2712C54.8582 23.2712 53.6499 21.6516 53.6499 19.3489C53.6499 17.0463 54.8582 15.4248 57.0161 15.4248C59.1741 15.4248 60.3823 17.0752 60.3823 19.3489C60.3823 21.6226 59.1723 23.2712 57.0161 23.2712ZM114.87 14.0316C113.633 12.4101 111.619 11.9572 110.153 11.9572C106.528 11.9572 103.679 14.4592 103.679 19.3489C103.679 20.32 103.809 21.2095 104.044 22.0085C103.811 22.3437 103.299 22.956 102.493 23.264C102.208 23.3582 101.948 23.4162 101.71 23.4397C101.644 23.4452 101.58 23.4506 101.512 23.4524C100.346 23.4669 99.7681 22.5538 99.7681 20.8001V15.5697H102.559V12.1003H99.7681V8.40446L95.3111 9.64547V12.1003H93.727V15.5697H95.3111V21.1117C95.3111 23.1915 95.7071 24.601 96.4405 25.4888C96.49 25.5576 97.6817 27.1664 100.434 27.1664C101.713 27.1664 103.277 26.8167 105.085 25.4362C105.309 25.2768 105.51 25.1101 105.692 24.9434C105.697 24.9398 105.703 24.9344 105.707 24.9308H105.708C106.862 26.1011 108.418 26.7425 110.155 26.7425C111.621 26.7425 113.634 26.2859 114.872 24.6681C114.872 27.795 112.974 28.5342 111.075 28.5342C109.55 28.5342 107.997 28.1356 105.897 27.3403L103.941 30.1557C107.019 31.6322 109.953 32.0036 111.938 32.0036C115.736 32.0036 119.331 30.1557 119.331 24.8384V12.1039H114.872V14.037L114.87 14.0316ZM111.504 23.2712C109.348 23.2712 108.14 21.6516 108.14 19.3489C108.14 17.0463 109.348 15.4266 111.504 15.4266C113.66 15.4266 114.87 17.0752 114.87 19.3489C114.87 21.6226 113.662 23.2712 111.504 23.2712ZM4.40024 20.637C4.40024 18.4938 5.06211 16.8343 6.42619 15.5661C7.8251 14.2635 9.59436 13.6294 11.8348 13.6294V9.28132C8.46863 9.28132 5.63231 10.3303 3.41019 12.4011C1.1459 14.5063 0 17.2781 0 20.637C0 23.9959 1.1459 26.766 3.40835 28.873C5.63231 30.9438 8.46863 31.9927 11.833 31.9927V27.6447C9.59436 27.6447 7.8251 27.0106 6.42435 25.708C5.06028 24.438 4.39841 22.7785 4.39841 20.6352L4.40024 20.637ZM172.526 11.9572C171.059 11.9572 169.046 12.4137 167.809 14.0316V12.0985H163.348V31.3188H167.809V24.6644C169.046 26.2859 171.059 26.7406 172.526 26.7406C176.153 26.7406 178.998 23.9543 178.998 19.3489C178.998 14.4592 176.151 11.9572 172.526 11.9572ZM171.175 23.2712C169.019 23.2712 167.811 21.6516 167.811 19.3489C167.811 17.0463 169.019 15.4248 171.175 15.4248C173.331 15.4248 174.543 17.0752 174.543 19.3489C174.543 21.6226 173.333 23.2712 171.175 23.2712ZM139.031 11.959C134.946 11.959 131.349 14.6313 131.349 19.3779C131.349 24.1245 134.946 26.7406 139.031 26.7406C143.116 26.7406 146.713 24.1245 146.713 19.3779C146.713 14.6313 143.116 11.959 139.031 11.959ZM139.031 23.2712C136.873 23.2712 135.808 21.6498 135.808 19.3761C135.808 17.1024 136.873 15.4248 139.031 15.4248C141.189 15.4248 142.252 17.0734 142.252 19.3761C142.252 21.6788 141.189 23.2712 139.031 23.2712ZM20.2594 3.11974C18.0337 1.04897 15.1992 0 11.833 0V4.34807C14.0716 4.34807 15.8409 4.98217 17.2398 6.28659C18.6039 7.55477 19.2657 9.21429 19.2657 11.3575C19.2657 13.5008 18.6039 15.1603 17.2398 16.4285C15.8409 17.7311 14.0716 18.367 11.833 18.367V22.715C15.201 22.715 18.0355 21.6643 20.2576 19.5935C22.5201 17.4883 23.666 14.7182 23.666 11.3575C23.666 7.99683 22.5201 5.22856 20.2576 3.12155L20.2594 3.11974ZM157.265 20.5138C157.265 22.6734 156.517 23.5847 154.79 23.5847C153.062 23.5847 152.316 22.6752 152.316 20.5138V12.1003H148.059L148.086 20.8001C148.086 24.8347 149.727 26.7406 153.121 26.7406C154.646 26.7406 156.344 26.1446 157.265 24.9797V26.5993H161.522V12.1021H157.265V20.5156V20.5138ZM129.369 11.9572C127.383 11.9572 126.263 12.8938 125.803 14.4863V12.0985H121.342V26.5957H125.803V20.7403C125.803 17.3017 126.377 15.4248 128.909 15.4248C130.117 15.4248 130.836 16.1368 131.037 16.3343L131.672 12.9518C131.21 12.3829 130.432 11.9572 129.369 11.9572ZM41.4081 11.9572C39.9414 11.9572 37.9282 12.4119 36.6907 14.0316V7.37179H32.2318V26.5957H36.6907V24.6626C37.9282 26.2841 39.9414 26.7388 41.4081 26.7388C45.0328 26.7388 47.882 24.2369 47.882 19.3471C47.882 14.7418 45.0328 11.9554 41.4081 11.9554V11.9572ZM40.0569 23.2712C37.8989 23.2712 36.6907 21.6226 36.6907 19.3489C36.6907 17.0752 37.8989 15.4248 40.0569 15.4248C42.2148 15.4248 43.4212 17.0463 43.4212 19.3489C43.4212 21.6516 42.213 23.2712 40.0569 23.2712Z" fill="#7A7A7A"/>
</svg>