<svg xmlns:xlink="http://www.w3.org/1999/xlink" xmlns="http://www.w3.org/2000/svg" width="150" height="66" viewBox="0 0 150 66" fill="none">
<g clip-path="url(#clip0_4770_948)">
<path d="M65.1922 50C63.8117 50 62.5419 49.6564 61.3833 48.9685C60.2241 48.2806 59.313 47.351 58.6508 46.1798C57.9879 45.0087 57.6567 43.7446 57.6567 42.3876C57.6567 41.0307 57.9975 39.71 58.6777 38.5396C59.3586 37.3684 60.2787 36.4437 61.4379 35.7649C62.5979 35.0868 63.8491 34.7473 65.1922 34.7473C66.7558 34.7473 68.1591 35.1894 69.4013 36.0715C70.6435 36.9542 71.5408 38.1212 72.0924 39.5711L68.8082 40.4915C68.4951 39.7485 68.0167 39.1485 67.3731 38.6925C66.7289 38.2372 66.0024 38.0095 65.1929 38.0095C64.3834 38.0095 63.7157 38.2099 63.0818 38.6087C62.4472 39.0089 61.9453 39.5431 61.5776 40.2122C61.2091 40.8819 61.0253 41.6068 61.0253 42.3876C61.0253 43.1684 61.2091 43.8933 61.5776 44.5631C61.9453 45.2321 62.4472 45.7615 63.0818 46.1526C63.7163 46.543 64.4207 46.7379 65.1929 46.7379C66.0203 46.7379 66.7524 46.5109 67.387 46.0548C68.0215 45.5995 68.4951 45.0094 68.8082 44.2837L72.0924 45.2035C71.5401 46.6352 70.6476 47.7924 69.4151 48.6759C68.1826 49.5586 66.7745 50 65.1922 50ZM73.3062 34.9981H76.8946V37.2008C77.3536 36.3648 78.0442 35.7279 78.9642 35.2907C79.6749 34.9534 80.5742 34.7529 81.5378 34.7983C81.7168 35.8843 82.2187 38.564 82.2187 38.564C81.2758 38.3985 80.5832 38.4411 79.7371 38.6366C78.891 38.8322 78.2052 39.2498 77.6812 39.8916C77.1566 40.5327 76.8946 41.3191 76.8946 42.248V49.7765H73.3062V34.9974V34.9981ZM89.6733 50C88.2928 50 87.023 49.6564 85.8644 48.9685C84.7052 48.2806 83.7941 47.351 83.1319 46.1798C82.4689 45.0087 82.1378 43.7446 82.1378 42.3876C82.1378 41.0307 82.4786 39.71 83.1588 38.5396C83.8397 37.3684 84.7598 36.4437 85.919 35.7649C87.079 35.0868 88.3302 34.7473 89.6733 34.7473C90.8692 34.7473 91.9869 35.0169 93.0266 35.5561C94.0656 36.0952 94.9407 36.839 95.6486 37.7867C96.3564 38.7344 96.8216 39.7855 97.0421 40.9378C97.244 41.9232 97.2537 42.8528 97.0698 43.7264H85.6978C85.8264 44.3773 86.0794 44.9346 86.4575 45.3998C86.8343 45.8642 87.3029 46.2134 87.8649 46.4452C88.4256 46.6778 89.0283 46.7937 89.6726 46.7937C90.3715 46.7937 91.0572 46.6589 91.7291 46.3901C92.4003 46.1205 92.9665 45.7441 93.4261 45.2608L96.5728 46.1254C95.9838 47.2966 95.0361 48.2359 93.7296 48.9419C92.4231 49.648 91.0703 50.0014 89.6726 50.0014L89.6733 50ZM93.5644 40.9657C93.4358 40.4266 93.1918 39.9244 92.8337 39.46C92.4743 38.9956 92.0236 38.6275 91.4809 38.358C90.9376 38.0891 90.3258 37.9543 89.6456 37.9543C88.9654 37.9543 88.3488 38.0891 87.7965 38.358C87.2442 38.6275 86.7886 38.9956 86.4299 39.46C86.0704 39.9244 85.8271 40.4266 85.6985 40.9657H93.5644ZM98.5602 30.2574H102.121V49.7772H98.5602V30.2574ZM109.297 50C107.88 50 106.611 49.6424 105.488 48.9266C104.365 48.2107 103.804 47.0256 103.804 45.3711C103.804 44.3305 104.038 43.4708 104.508 42.792C104.977 42.1139 105.657 41.6117 106.55 41.2863C107.442 40.9608 108.496 40.7981 109.711 40.7981H114.017V39.9894C114.017 39.2463 113.722 38.6974 113.133 38.3447C112.544 37.992 111.772 37.8146 110.816 37.8146C110.006 37.8146 109.311 37.9501 108.731 38.219C108.152 38.4886 107.77 38.9488 107.586 39.5997L104.164 39.6276C104.182 38.6422 104.486 37.7825 105.075 37.0478C105.663 36.3131 106.454 35.7467 107.448 35.3466C108.442 34.9478 109.537 34.7473 110.733 34.7473C111.929 34.7473 113.01 34.9478 114.031 35.3466C115.052 35.7467 115.87 36.3089 116.487 37.0338C117.104 37.7588 117.412 38.6052 117.412 39.5711V49.7772H114.017V47.937C113.63 48.458 113.023 48.9322 112.195 49.3589C111.368 49.787 110.402 50 109.298 50H109.297ZM109.6 47.0437C110.318 47.0437 111.017 46.8761 111.698 46.5423C112.379 46.2078 112.936 45.7608 113.368 45.2035C113.8 44.6462 114.017 44.0323 114.017 43.3633H110.373C109.674 43.3633 109.094 43.4562 108.635 43.6419C108.174 43.8277 107.838 44.0791 107.627 44.3948C107.415 44.7104 107.337 45.0736 107.392 45.4822C107.448 46.0402 107.687 46.4396 108.11 46.6813C108.534 46.9229 109.03 47.0437 109.6 47.0437ZM119.978 34.9981H123.567V36.6714C124.063 36.0764 124.68 35.6077 125.416 35.2627C126.151 34.9191 126.979 34.7473 127.9 34.7473C128.967 34.7473 129.97 34.9841 130.908 35.4583C131.846 35.9325 132.596 36.6204 133.158 37.522C133.718 38.4236 134 39.4698 134 40.6591V49.7772H130.412V41.6068C130.412 40.9008 130.269 40.282 129.984 39.7526C129.699 39.2233 129.308 38.8189 128.811 38.5396C128.314 38.2609 127.772 38.1212 127.183 38.1212C126.466 38.1212 125.835 38.2986 125.293 38.6513C124.749 39.0047 124.326 39.4873 124.023 40.1011C123.719 40.7143 123.567 41.4022 123.567 42.1648V49.7772H119.979V34.9981H119.978Z" fill="#1A1A1A"/>
<path d="M57.5618 27.8271C53.0817 38.2539 43.6252 45.4424 32.6832 45.4424C29.6714 45.4424 26.7729 44.8955 24.059 43.8892L22.7947 39.1052C25.0517 39.7324 27.4276 40.0537 29.8698 40.0537C37.8871 40.0537 45.9603 35.3675 50.9388 27.8243L51.357 27.1902L49.0558 22.9992C50.1017 21.0961 50.9388 19.0275 51.5291 16.8402L57.5625 27.8271H57.5618ZM48.3251 24.2465L43.7974 16C43.4006 17.4415 42.7985 18.8522 42.0146 20.177L44.0939 23.9636L43.7766 24.5643C41.1125 29.601 34.7024 33.1194 28.1886 33.1194C26.0851 33.1194 23.9982 32.7975 21.9873 32.1626L21.3368 31.9573L20.1783 27.5743C18.6506 27.0107 17.2328 26.2278 16.001 25.2019L18.9223 36.2524C19.8237 36.7349 21.0016 37.2538 22.4228 37.6966C24.4448 38.3266 26.9582 38.8029 29.8705 38.8029C37.9043 38.8029 45.4481 33.8904 49.9102 27.1301L48.3265 24.2465H48.3251ZM41.2487 21.3608L38.7359 16.7843C36.8197 21.161 33.8086 24.2982 27.9909 24.2982C24.8491 24.2982 21.2684 22.951 19.9384 21.8273L21.576 28.0219L22.3551 30.9691C24.2104 31.555 26.1667 31.8693 28.1879 31.8693C34.719 31.8693 40.395 28.3048 42.6844 23.9755L41.2487 21.3608Z" fill="#1A1A1A"/>
</g>
<defs>
<clipPath id="clip0_4770_948">
<rect width="118" height="34" fill="white" transform="translate(16 16)"/>
</clipPath>
</defs>
</svg>