<svg xmlns:xlink="http://www.w3.org/1999/xlink" xmlns="http://www.w3.org/2000/svg" width="77" height="58" viewBox="0 0 77 58" fill="none">
<mask id="mask0_3405_1290" style="mask-type:alpha" maskUnits="userSpaceOnUse" x="15" y="9" width="44" height="40">
<path d="M15 9.19043H58.8564V48.9999H15V9.19043Z" fill="white"/>
</mask>
<g mask="url(#mask0_3405_1290)">
<path fill-rule="evenodd" clip-rule="evenodd" d="M46.522 9.18994C42.6466 9.18994 39.1899 14.547 36.9286 22.923C34.6682 14.547 31.2103 9.18994 27.3348 9.18994C20.5235 9.18994 14.9995 27.0137 14.9995 48.9997H20.4827C20.4827 28.5841 23.5516 12.0338 27.3348 12.0338C31.1194 12.0338 34.1879 27.3116 34.1879 46.1565H39.6696C39.6696 27.3116 42.7375 12.0338 46.522 12.0338C50.3062 12.0338 53.3751 28.5841 53.3751 48.9997H58.8561C58.8561 27.0137 53.3337 9.18994 46.522 9.18994Z" fill="black"/>
</g>
<mask id="mask1_3405_1290" style="mask-type:alpha" maskUnits="userSpaceOnUse" x="59" y="46" width="4" height="3">
<path d="M59.667 46.2241H62.6652V48.9997H59.667V46.2241Z" fill="white"/>
</mask>
<g mask="url(#mask1_3405_1290)">
<path fill-rule="evenodd" clip-rule="evenodd" d="M61.1708 48.7965C60.4727 48.7965 59.9396 48.2844 59.9396 47.6057C59.9396 46.9409 60.4727 46.4286 61.1708 46.4286C61.8589 46.4286 62.3937 46.9409 62.3937 47.6057C62.3937 48.2844 61.8589 48.7965 61.1708 48.7965ZM61.1708 46.2241C60.3537 46.2241 59.667 46.8216 59.667 47.6057C59.667 48.4022 60.3537 48.9997 61.1708 48.9997C61.9844 48.9997 62.6653 48.4022 62.6653 47.6057C62.6653 46.8216 61.9844 46.2241 61.1708 46.2241Z" fill="black"/>
</g>
<path fill-rule="evenodd" clip-rule="evenodd" d="M61.5185 47.4914H61.2241V47.037H61.5952C61.7863 47.037 61.9919 47.0658 61.9919 47.2551C61.9919 47.4816 61.7653 47.4914 61.5185 47.4914ZM62.2724 47.2646C62.2724 46.9912 62.071 46.8569 61.6421 46.8569H60.9429V48.2855H61.2241V47.6712H61.5221L62.0121 48.2855H62.3143L61.7994 47.6541C62.0661 47.6312 62.2724 47.5235 62.2724 47.2646Z" fill="black"/>
</svg>