<svg width="220" height="56" viewBox="0 0 220 56" fill="none" xmlns="http://www.w3.org/2000/svg">
<mask id="mask0_4158_119" style="mask-type:luminance" maskUnits="userSpaceOnUse" x="77" y="6" width="67" height="44">
<path d="M143.489 6H77V50H143.489V6Z" fill="white"/>
</mask>
<g mask="url(#mask0_4158_119)">
<path d="M110.244 47.6C95.0733 47.6 82.6727 38.7734 82.6727 28C82.6727 17.2266 95.0338 8.4 110.244 8.4C125.455 8.4 137.816 17.2266 137.816 28C137.816 38.7734 125.455 47.6 110.244 47.6ZM110.244 6C91.9072 6 77 15.76 77 28C77 40.24 91.9072 50 110.244 50C128.582 50 143.489 40.1333 143.489 28C143.489 15.8667 128.582 6 110.244 6Z" fill="#181614"/>
<path d="M111.696 39.4636H108.055C106.908 39.4636 106.288 38.9436 106.288 37.997V29.5969C106.288 29.0769 106.499 28.8636 107.013 28.8636H111.696C114.638 28.8636 117.039 31.2503 117.092 34.2236C117.132 37.0903 114.863 39.437 112.026 39.4769C111.921 39.4769 111.815 39.4769 111.696 39.4636ZM106.301 17.9969C106.301 17.0502 106.921 16.5303 108.069 16.5303H110.456C112.923 16.4236 115.021 18.3569 115.127 20.8503V21.0502C115.087 23.6236 113.003 25.6903 110.456 25.6636H107.026C106.512 25.6636 106.301 25.4502 106.301 24.9303V17.9969ZM120.944 27.3436C120.219 27.0236 120.219 26.9169 120.944 26.5036C122.804 25.3436 123.913 23.2636 123.847 21.0502C123.847 16.957 118.451 12.8636 109.863 12.8636C104.876 12.8369 100.035 14.4636 96.011 17.4769C95.2854 18.1036 95.3909 18.4236 95.602 18.637L96.8552 20.1036C97.2642 20.5303 97.4753 20.4236 97.6863 20.2102C98.623 19.4769 98.7285 19.8903 98.7285 20.7303V35.2636C98.7285 36.1036 98.623 36.5303 97.6863 35.7836C97.4753 35.5702 97.2774 35.4636 96.8552 35.8903L95.5097 37.4636C95.2986 37.7836 95.1007 38.0903 95.9318 38.6236C100.101 41.5036 105.008 43.0769 110.047 43.1436C119.704 43.1436 125.746 39.0502 125.746 33.5836C125.825 29.9036 122.818 28.1169 120.944 27.3836" fill="#181614"/>
</g>
</svg>
