<svg width="220" height="56" viewBox="0 0 220 56" fill="none" xmlns="http://www.w3.org/2000/svg">
<mask id="mask0_4158_22" style="mask-type:luminance" maskUnits="userSpaceOnUse" x="16" y="6" width="67" height="44">
<path d="M82.4889 6H16V50H82.4889V6Z" fill="white"/>
</mask>
<g mask="url(#mask0_4158_22)">
<path d="M49.2444 47.6C34.0733 47.6 21.6727 38.7734 21.6727 28C21.6727 17.2266 34.0338 8.4 49.2444 8.4C64.4551 8.4 76.8162 17.2266 76.8162 28C76.8162 38.7734 64.4551 47.6 49.2444 47.6ZM49.2444 6C30.9072 6 16 15.76 16 28C16 40.24 30.9072 50 49.2444 50C67.5817 50 82.4889 40.1333 82.4889 28C82.4889 15.8667 67.5817 6 49.2444 6Z" fill="#181614"/>
<path d="M50.6965 39.4636H47.0554C45.9077 39.4636 45.2877 38.9436 45.2877 37.997V29.5969C45.2877 29.0769 45.4987 28.8636 46.0132 28.8636H50.6965C53.6383 28.8636 56.0394 31.2503 56.0922 34.2236C56.1317 37.0903 53.8626 39.437 51.0263 39.4769C50.9208 39.4769 50.8152 39.4769 50.6965 39.4636ZM45.3009 17.9969C45.3009 17.0502 45.9209 16.5303 47.0686 16.5303H49.4565C51.9234 16.4236 54.0209 18.3569 54.1265 20.8503V21.0502C54.0869 23.6236 52.0025 25.6903 49.4565 25.6636H46.0264C45.5119 25.6636 45.3009 25.4502 45.3009 24.9303V17.9969ZM59.9443 27.3436C59.2187 27.0236 59.2187 26.9169 59.9443 26.5036C61.8043 25.3436 62.9125 23.2636 62.8465 21.0502C62.8465 16.957 57.451 12.8636 48.8628 12.8636C43.8761 12.8369 39.0345 14.4636 35.011 17.4769C34.2854 18.1036 34.3909 18.4236 34.602 18.637L35.8552 20.1036C36.2642 20.5303 36.4753 20.4236 36.6863 20.2102C37.623 19.4769 37.7285 19.8903 37.7285 20.7303V35.2636C37.7285 36.1036 37.623 36.5303 36.6863 35.7836C36.4753 35.5702 36.2774 35.4636 35.8552 35.8903L34.5097 37.4636C34.2986 37.7836 34.1007 38.0903 34.9318 38.6236C39.1005 41.5036 44.008 43.0769 49.0475 43.1436C58.7042 43.1436 64.7463 39.0502 64.7463 33.5836C64.8254 29.9036 61.8175 28.1169 59.9443 27.3836" fill="#181614"/>
</g>
</svg>
