<svg xmlns:xlink="http://www.w3.org/1999/xlink" xmlns="http://www.w3.org/2000/svg" width="68" height="45" viewBox="0 0 68 45" fill="none">
<g clip-path="url(#clip0_9908_1672)">
<path d="M34 42.5455C18.4841 42.5455 5.80159 33.5182 5.80159 22.5C5.80159 11.4818 18.4437 2.45455 34 2.45455C49.5564 2.45455 62.1984 11.4818 62.1984 22.5C62.1984 33.5182 49.5564 42.5455 34 42.5455ZM34 0C15.246 0 0 9.98182 0 22.5C0 35.0182 15.246 45 34 45C52.754 45 68 34.9091 68 22.5C68 10.0909 52.754 0 34 0Z" fill="white"/>
<path d="M35.4841 34.2264H31.7603C30.5865 34.2264 29.9524 33.6945 29.9524 32.7264V24.1354C29.9524 23.6036 30.1682 23.3854 30.6944 23.3854H35.4841C38.4928 23.3854 40.9484 25.8264 41.0024 28.8673C41.0428 31.7991 38.7222 34.1991 35.8214 34.24C35.7135 34.24 35.6055 34.24 35.4841 34.2264ZM29.9659 12.2718C29.9659 11.3036 30.6 10.7718 31.7738 10.7718H34.2159C36.7389 10.6627 38.8841 12.64 38.9921 15.19V15.3945C38.9516 18.0264 36.8198 20.14 34.2159 20.1127H30.7079C30.1817 20.1127 29.9659 19.8945 29.9659 19.3627V12.2718ZM44.9421 21.8309C44.2 21.5036 44.2 21.3945 44.9421 20.9718C46.8444 19.7854 47.9778 17.6582 47.9103 15.3945C47.9103 11.2082 42.3921 7.02181 33.6087 7.02181C28.5087 6.99454 23.5571 8.65818 19.4421 11.74C18.7 12.3809 18.8079 12.7082 19.0238 12.9264L20.3055 14.4264C20.7238 14.8627 20.9397 14.7536 21.1555 14.5354C22.1135 13.7854 22.2214 14.2082 22.2214 15.0673V29.9309C22.2214 30.79 22.1135 31.2264 21.1555 30.4627C20.9397 30.2445 20.7373 30.1354 20.3055 30.5718L18.9294 32.1809C18.7135 32.5082 18.5111 32.8218 19.3611 33.3673C23.6246 36.3127 28.6436 37.9218 33.7976 37.99C43.6738 37.99 49.8532 33.8036 49.8532 28.2127C49.9341 24.4491 46.8579 22.6218 44.9421 21.8718" fill="white"/>
</g>
<defs>
<clipPath id="clip0_9908_1672">
<rect width="68" height="45" fill="white"/>
</clipPath>
</defs>
</svg>