<svg width="220" height="56" viewBox="0 0 220 56" fill="none" xmlns="http://www.w3.org/2000/svg">
<path d="M94.4927 36.0348C94.9521 35.9413 95.4024 35.8075 95.8445 35.632L95.6001 38.6917C95.1 38.9334 94.5018 39.128 93.8041 39.2754C93.1063 39.4236 92.4093 39.4973 91.7116 39.4973C90.5726 39.4973 89.6305 39.3134 88.8867 38.9463C88.143 38.5792 87.5787 38.0252 87.1956 37.285C86.8124 36.5447 86.62 35.6046 86.62 34.4631V24.8719H84.0742V21.8281H86.62V17.962L91.084 16.7277V21.8281H95.7743V24.8719H91.084V33.9531C91.084 34.7428 91.2552 35.3105 91.5985 35.6555C91.9409 36.0013 92.4735 36.1738 93.1938 36.1738C93.6004 36.1738 94.0334 36.1275 94.4927 36.034V36.0348ZM111.859 31.569H100.789C100.802 32.668 100.936 33.5868 101.196 34.3232C101.469 35.0962 101.877 35.6722 102.417 36.0507C102.958 36.4292 103.634 36.6184 104.448 36.6184C105.425 36.6184 106.18 36.3494 106.715 35.8121C107.25 35.2748 107.569 34.4357 107.674 33.295L111.946 33.8376C111.748 35.0331 111.324 36.056 110.673 36.9057C110.022 37.7562 109.167 38.4029 108.11 38.8468C107.051 39.2914 105.831 39.5133 104.448 39.5133C102.693 39.5133 101.214 39.1675 100.011 38.4766C98.8074 37.7858 97.9007 36.7682 97.2905 35.4245C96.6802 34.0808 96.3747 32.4445 96.3747 30.5134V30.4472C96.3747 27.5296 97.0634 25.2952 98.4408 23.7433C99.8182 22.1914 101.821 21.4154 104.448 21.4154C106.064 21.4154 107.433 21.7278 108.555 22.3532C109.676 22.9787 110.531 23.8945 111.118 25.1006C111.705 26.3075 111.998 27.766 111.998 29.4767C111.998 30.0581 111.951 31.0081 111.858 31.5675L111.859 31.569ZM107.535 28.6719C107.535 27.6846 107.419 26.8676 107.186 26.2209C106.954 25.5741 106.608 25.0915 106.149 24.7731C105.69 24.4554 105.106 24.2958 104.397 24.2958C103.583 24.2958 102.909 24.4964 102.375 24.8962C101.84 25.2967 101.441 25.8941 101.18 26.6898C100.993 27.2583 100.874 27.9316 100.821 28.7053H107.536V28.6726L107.535 28.6719ZM113.927 39.1029H118.373V16.0703H113.927V39.1029ZM150.536 22.0751C149.815 21.724 148.921 21.5484 147.851 21.5484C146.898 21.5484 146.035 21.7156 145.262 22.05C144.488 22.3844 143.797 22.9027 143.186 23.605C142.576 24.3072 142.038 25.2116 141.574 26.3197L141.208 26.1882C141.556 25.2124 141.801 24.4007 141.94 23.7532C142.08 23.1064 142.161 22.4642 142.185 21.8281H137.738V39.1021H142.185V30.3165C142.185 29.1758 142.342 28.1642 142.655 27.2811C142.969 26.398 143.411 25.7155 143.981 25.2329C144.55 24.7503 145.207 24.5094 145.951 24.5094C146.695 24.5094 147.264 24.7343 147.659 25.1842C148.055 25.6342 148.252 26.2923 148.252 27.1587V39.1029H152.699V26.2703C152.699 25.2283 152.519 24.3566 152.158 23.6544C151.798 22.9529 151.258 22.4262 150.536 22.0751ZM181.029 36.0348C180.569 36.1282 180.136 36.1746 179.73 36.1746C179.009 36.1746 178.477 36.0021 178.134 35.6563C177.791 35.3112 177.62 34.7435 177.62 33.9539V24.8726H182.31V21.8288H177.62V16.7285L173.156 17.9627V21.8288H170.61V24.8726H173.156V34.4638C173.156 35.6046 173.347 36.5447 173.731 37.2857C174.115 38.026 174.679 38.58 175.423 38.9471C176.166 39.3142 177.108 39.4981 178.247 39.4981C178.945 39.4981 179.642 39.4244 180.34 39.2762C181.038 39.128 181.636 38.9334 182.136 38.6925L182.38 35.6327C181.938 35.8083 181.488 35.9428 181.029 36.0355V36.0348ZM135.702 31.569H124.632C124.645 32.668 124.779 33.5868 125.039 34.3232C125.312 35.0962 125.72 35.6722 126.26 36.0507C126.801 36.4292 127.477 36.6184 128.291 36.6184C129.268 36.6184 130.023 36.3494 130.558 35.8121C131.093 35.2748 131.412 34.4357 131.517 33.295L135.789 33.8376C135.591 35.0331 135.167 36.056 134.516 36.9057C133.865 37.7562 133.01 38.4029 131.953 38.8468C130.894 39.2914 129.674 39.5133 128.291 39.5133C126.536 39.5133 125.057 39.1675 123.853 38.4766C122.65 37.7858 121.744 36.7682 121.133 35.4245C120.523 34.0808 120.218 32.4445 120.218 30.5134V30.4472C120.218 27.5296 120.906 25.2952 122.284 23.7433C123.661 22.1914 125.664 21.4154 128.291 21.4154C129.907 21.4154 131.276 21.7278 132.398 22.3532C133.519 22.9787 134.374 23.8945 134.961 25.1006C135.548 26.3075 135.841 27.766 135.841 29.4767C135.841 30.0581 135.794 31.0081 135.701 31.5675L135.702 31.569ZM131.378 28.6719C131.378 27.6846 131.262 26.8676 131.029 26.2209C130.797 25.5741 130.451 25.0915 129.992 24.7731C129.533 24.4554 128.949 24.2958 128.24 24.2958C127.426 24.2958 126.752 24.4964 126.217 24.8962C125.683 25.2967 125.284 25.8941 125.023 26.6898C124.836 27.2583 124.717 27.9316 124.664 28.7053H131.379V28.6726L131.378 28.6719ZM169.965 31.569H158.895C158.908 32.668 159.042 33.5868 159.302 34.3232C159.575 35.0962 159.983 35.6722 160.523 36.0507C161.064 36.4292 161.74 36.6184 162.554 36.6184C163.531 36.6184 164.286 36.3494 164.821 35.8121C165.356 35.2748 165.675 34.4357 165.779 33.295L170.052 33.8376C169.854 35.0331 169.43 36.056 168.779 36.9057C168.128 37.7562 167.274 38.4029 166.216 38.8468C165.158 39.2914 163.937 39.5133 162.555 39.5133C160.8 39.5133 159.32 39.1675 158.117 38.4766C156.914 37.7858 156.007 36.7682 155.397 35.4245C154.787 34.0808 154.481 32.4445 154.481 30.5134V30.4472C154.481 27.5296 155.17 25.2952 156.548 23.7433C157.925 22.1914 159.928 21.4154 162.555 21.4154C164.171 21.4154 165.54 21.7278 166.661 22.3532C167.783 22.9787 168.638 23.8945 169.224 25.1006C169.811 26.3075 170.105 27.766 170.105 29.4767C170.105 30.0581 170.058 31.0081 169.965 31.5675V31.569ZM165.641 28.6719C165.641 27.6846 165.525 26.8676 165.292 26.2209C165.06 25.5741 164.714 25.0915 164.255 24.7731C163.796 24.4554 163.212 24.2958 162.503 24.2958C161.689 24.2958 161.015 24.4964 160.48 24.8962C159.946 25.2967 159.547 25.8941 159.286 26.6898C159.099 27.2583 158.98 27.9316 158.927 28.7053H165.642V28.6726L165.641 28.6719Z" fill="#181614"/>
<path d="M47.6033 30.1227C47.6033 30.1227 50.9577 32.6892 55.8585 32.6892C60.7592 32.6892 64.1129 30.1227 64.1129 30.1227V32.8716C64.1129 32.8716 60.7585 36.0286 55.8585 36.0286C50.9585 36.0286 47.6041 32.8716 47.6033 32.8716V30.1227ZM53.9441 23.1611C53.9441 21.0088 51.7068 20.6728 51.003 20.6728C50.2992 20.6728 48.0619 21.0095 48.0619 23.1611C48.0619 25.3134 50.2992 25.6493 51.003 25.6493C51.7068 25.6493 53.9441 25.3126 53.9441 23.1611ZM57.5994 24.7654C58.6902 24.4447 59.6934 24.3315 60.5518 24.3254C61.4102 24.3315 62.4134 24.4447 63.5042 24.7654V21.8622C62.4134 21.5415 61.4102 21.4283 60.5518 21.4222C59.6934 21.4283 58.6902 21.5415 57.5994 21.8622V24.7654ZM74.7162 28C74.7162 34.6508 73.9642 40.2436 73.9642 40.2444C73.5863 43.3801 71.1868 45.8486 68.073 46.2278C68.073 46.2278 63.1323 47 55.8585 47C48.5847 47 43.6432 46.2278 43.6432 46.2278C40.5302 45.8486 38.1307 43.3801 37.7528 40.2444C37.7528 40.2444 37 34.6508 37 28C37 21.3492 37.752 15.7564 37.7528 15.7556C38.1307 12.6199 40.5302 10.1506 43.6432 9.77216C43.6432 9.77216 48.5847 9 55.8585 9C63.1323 9 68.073 9.77216 68.073 9.77216C71.1868 10.1506 73.5863 12.6199 73.9642 15.7556C73.9642 15.7556 74.7162 21.35 74.7162 28ZM69.5062 27.9992C69.5062 23.1854 68.9616 19.1384 68.9616 19.1376C68.9616 19.1354 68.9608 19.1323 68.9601 19.13C68.6538 16.2337 67.5722 15.1492 64.7013 14.8079C64.7005 14.8079 64.6997 14.8079 64.699 14.8079C62.6382 14.5032 59.1307 14.2402 55.8585 14.2493C52.5727 14.241 49.0984 14.5024 47.018 14.8079C47.018 14.8079 47.0165 14.8079 47.0157 14.8079C44.1478 15.1492 43.0624 16.2306 42.7569 19.13C42.7569 19.1323 42.7561 19.1354 42.7554 19.1376C42.7554 19.1376 42.2108 23.1854 42.2108 27.9992C42.2108 32.8131 42.7554 36.8601 42.7554 36.8601C43.0601 39.7625 44.141 40.8486 47.018 41.1906C47.018 41.1906 50.5949 41.7507 55.8585 41.7507C61.1221 41.7507 64.699 41.1906 64.699 41.1906C67.5729 40.8486 68.6569 39.7648 68.9616 36.8601C68.9616 36.8601 69.5062 32.8123 69.5062 27.9992Z" fill="#181614"/>
</svg>
