<svg width="220" height="56" viewBox="0 0 220 56" fill="none" xmlns="http://www.w3.org/2000/svg">
<path d="M73.4927 36.0348C73.9521 35.9413 74.4024 35.8075 74.8445 35.632L74.6001 38.6917C74.1 38.9334 73.5018 39.128 72.8041 39.2754C72.1063 39.4236 71.4093 39.4973 70.7116 39.4973C69.5726 39.4973 68.6305 39.3134 67.8867 38.9463C67.143 38.5792 66.5787 38.0252 66.1956 37.285C65.8124 36.5447 65.62 35.6046 65.62 34.4631V24.8719H63.0742V21.8281H65.62V17.962L70.084 16.7277V21.8281H74.7743V24.8719H70.084V33.9531C70.084 34.7428 70.2552 35.3105 70.5985 35.6555C70.9409 36.0013 71.4735 36.1738 72.1938 36.1738C72.6004 36.1738 73.0334 36.1275 73.4927 36.034V36.0348ZM90.8592 31.569H79.789C79.8018 32.668 79.936 33.5868 80.1963 34.3232C80.4693 35.0962 80.8767 35.6722 81.4168 36.0507C81.9576 36.4292 82.6342 36.6184 83.4481 36.6184C84.4249 36.6184 85.18 36.3494 85.7148 35.8121C86.2496 35.2748 86.5695 34.4357 86.6735 33.295L90.946 33.8376C90.7483 35.0331 90.3236 36.056 89.6727 36.9057C89.0217 37.7562 88.1671 38.4029 87.1095 38.8468C86.0512 39.2914 84.8308 39.5133 83.4481 39.5133C81.6928 39.5133 80.2136 39.1675 79.0105 38.4766C77.8074 37.7858 76.9007 36.7682 76.2905 35.4245C75.6802 34.0808 75.3747 32.4445 75.3747 30.5134V30.4472C75.3747 27.5296 76.0634 25.2952 77.4408 23.7433C78.8182 22.1914 80.8209 21.4154 83.4481 21.4154C85.0638 21.4154 86.4329 21.7278 87.5546 22.3532C88.6762 22.9787 89.5309 23.8945 90.1177 25.1006C90.7046 26.3075 90.998 27.766 90.998 29.4767C90.998 30.0581 90.9512 31.0081 90.8585 31.5675L90.8592 31.569ZM86.5347 28.6719C86.5347 27.6846 86.4186 26.8676 86.1863 26.2209C85.9539 25.5741 85.6077 25.0915 85.1491 24.7731C84.6897 24.4554 84.1059 24.2958 83.3968 24.2958C82.5829 24.2958 81.9086 24.4964 81.3745 24.8962C80.8397 25.2967 80.4414 25.8941 80.1804 26.6898C79.9934 27.2583 79.8742 27.9316 79.8214 28.7053H86.5363V28.6726L86.5347 28.6719ZM92.9268 39.1029H97.3734V16.0703H92.9268V39.1029ZM129.536 22.0751C128.815 21.724 127.921 21.5484 126.851 21.5484C125.898 21.5484 125.035 21.7156 124.262 22.05C123.488 22.3844 122.797 22.9027 122.186 23.605C121.576 24.3072 121.038 25.2116 120.574 26.3197L120.208 26.1882C120.556 25.2124 120.801 24.4007 120.94 23.7532C121.08 23.1064 121.161 22.4642 121.185 21.8281H116.738V39.1021H121.185V30.3165C121.185 29.1758 121.342 28.1642 121.655 27.2811C121.969 26.398 122.411 25.7155 122.981 25.2329C123.55 24.7503 124.207 24.5094 124.951 24.5094C125.695 24.5094 126.264 24.7343 126.659 25.1842C127.055 25.6342 127.252 26.2923 127.252 27.1587V39.1029H131.699V26.2703C131.699 25.2283 131.519 24.3566 131.158 23.6544C130.798 22.9529 130.258 22.4262 129.536 22.0751ZM160.029 36.0348C159.569 36.1282 159.136 36.1746 158.73 36.1746C158.009 36.1746 157.477 36.0021 157.134 35.6563C156.791 35.3112 156.62 34.7435 156.62 33.9539V24.8726H161.31V21.8288H156.62V16.7285L152.156 17.9627V21.8288H149.61V24.8726H152.156V34.4638C152.156 35.6046 152.347 36.5447 152.731 37.2857C153.115 38.026 153.679 38.58 154.423 38.9471C155.166 39.3142 156.108 39.4981 157.247 39.4981C157.945 39.4981 158.642 39.4244 159.34 39.2762C160.038 39.128 160.636 38.9334 161.136 38.6925L161.38 35.6327C160.938 35.8083 160.488 35.9428 160.029 36.0355V36.0348ZM114.702 31.569H103.632C103.645 32.668 103.779 33.5868 104.039 34.3232C104.312 35.0962 104.72 35.6722 105.26 36.0507C105.801 36.4292 106.477 36.6184 107.291 36.6184C108.268 36.6184 109.023 36.3494 109.558 35.8121C110.093 35.2748 110.412 34.4357 110.517 33.295L114.789 33.8376C114.591 35.0331 114.167 36.056 113.516 36.9057C112.865 37.7562 112.01 38.4029 110.953 38.8468C109.894 39.2914 108.674 39.5133 107.291 39.5133C105.536 39.5133 104.057 39.1675 102.853 38.4766C101.65 37.7858 100.744 36.7682 100.133 35.4245C99.5232 34.0808 99.2177 32.4445 99.2177 30.5134V30.4472C99.2177 27.5296 99.9064 25.2952 101.284 23.7433C102.661 22.1914 104.664 21.4154 107.291 21.4154C108.907 21.4154 110.276 21.7278 111.398 22.3532C112.519 22.9787 113.374 23.8945 113.961 25.1006C114.548 26.3075 114.841 27.766 114.841 29.4767C114.841 30.0581 114.794 31.0081 114.701 31.5675L114.702 31.569ZM110.378 28.6719C110.378 27.6846 110.262 26.8676 110.029 26.2209C109.797 25.5741 109.451 25.0915 108.992 24.7731C108.533 24.4554 107.949 24.2958 107.24 24.2958C106.426 24.2958 105.752 24.4964 105.217 24.8962C104.683 25.2967 104.284 25.8941 104.023 26.6898C103.836 27.2583 103.717 27.9316 103.664 28.7053H110.379V28.6726L110.378 28.6719ZM148.965 31.569H137.895C137.908 32.668 138.042 33.5868 138.302 34.3232C138.575 35.0962 138.983 35.6722 139.523 36.0507C140.064 36.4292 140.74 36.6184 141.554 36.6184C142.531 36.6184 143.286 36.3494 143.821 35.8121C144.356 35.2748 144.675 34.4357 144.779 33.295L149.052 33.8376C148.854 35.0331 148.43 36.056 147.779 36.9057C147.128 37.7562 146.274 38.4029 145.216 38.8468C144.158 39.2914 142.937 39.5133 141.555 39.5133C139.8 39.5133 138.32 39.1675 137.117 38.4766C135.914 37.7858 135.007 36.7682 134.397 35.4245C133.787 34.0808 133.481 32.4445 133.481 30.5134V30.4472C133.481 27.5296 134.17 25.2952 135.548 23.7433C136.925 22.1914 138.928 21.4154 141.555 21.4154C143.171 21.4154 144.54 21.7278 145.661 22.3532C146.783 22.9787 147.638 23.8945 148.224 25.1006C148.811 26.3075 149.105 27.766 149.105 29.4767C149.105 30.0581 149.058 31.0081 148.965 31.5675V31.569ZM144.641 28.6719C144.641 27.6846 144.525 26.8676 144.292 26.2209C144.06 25.5741 143.714 25.0915 143.255 24.7731C142.796 24.4554 142.212 24.2958 141.503 24.2958C140.689 24.2958 140.015 24.4964 139.48 24.8962C138.946 25.2967 138.547 25.8941 138.286 26.6898C138.099 27.2583 137.98 27.9316 137.927 28.7053H144.642V28.6726L144.641 28.6719Z" fill="#181614"/>
<path d="M26.6033 30.1227C26.6033 30.1227 29.9577 32.6892 34.8585 32.6892C39.7592 32.6892 43.1129 30.1227 43.1129 30.1227V32.8716C43.1129 32.8716 39.7585 36.0286 34.8585 36.0286C29.9585 36.0286 26.6041 32.8716 26.6033 32.8716V30.1227ZM32.9441 23.1611C32.9441 21.0088 30.7068 20.6728 30.003 20.6728C29.2992 20.6728 27.0619 21.0095 27.0619 23.1611C27.0619 25.3134 29.2992 25.6493 30.003 25.6493C30.7068 25.6493 32.9441 25.3126 32.9441 23.1611ZM36.5994 24.7654C37.6902 24.4447 38.6934 24.3315 39.5518 24.3254C40.4102 24.3315 41.4134 24.4447 42.5042 24.7654V21.8622C41.4134 21.5415 40.4102 21.4283 39.5518 21.4222C38.6934 21.4283 37.6902 21.5415 36.5994 21.8622V24.7654ZM53.7162 28C53.7162 34.6508 52.9642 40.2436 52.9642 40.2444C52.5863 43.3801 50.1868 45.8486 47.073 46.2278C47.073 46.2278 42.1323 47 34.8585 47C27.5847 47 22.6432 46.2278 22.6432 46.2278C19.5302 45.8486 17.1307 43.3801 16.7528 40.2444C16.7528 40.2444 16 34.6508 16 28C16 21.3492 16.752 15.7564 16.7528 15.7556C17.1307 12.6199 19.5302 10.1506 22.6432 9.77216C22.6432 9.77216 27.5847 9 34.8585 9C42.1323 9 47.073 9.77216 47.073 9.77216C50.1868 10.1506 52.5863 12.6199 52.9642 15.7556C52.9642 15.7556 53.7162 21.35 53.7162 28ZM48.5062 27.9992C48.5062 23.1854 47.9616 19.1384 47.9616 19.1376C47.9616 19.1354 47.9608 19.1323 47.9601 19.13C47.6538 16.2337 46.5722 15.1492 43.7013 14.8079C43.7005 14.8079 43.6997 14.8079 43.699 14.8079C41.6382 14.5032 38.1307 14.2402 34.8585 14.2493C31.5727 14.241 28.0984 14.5024 26.018 14.8079C26.018 14.8079 26.0165 14.8079 26.0157 14.8079C23.1478 15.1492 22.0624 16.2306 21.7569 19.13C21.7569 19.1323 21.7561 19.1354 21.7554 19.1376C21.7554 19.1376 21.2108 23.1854 21.2108 27.9992C21.2108 32.8131 21.7554 36.8601 21.7554 36.8601C22.0601 39.7625 23.141 40.8486 26.018 41.1906C26.018 41.1906 29.5949 41.7507 34.8585 41.7507C40.1221 41.7507 43.699 41.1906 43.699 41.1906C46.5729 40.8486 47.6569 39.7648 47.9616 36.8601C47.9616 36.8601 48.5062 32.8123 48.5062 27.9992Z" fill="#181614"/>
</svg>
