<svg xmlns:xlink="http://www.w3.org/1999/xlink" xmlns="http://www.w3.org/2000/svg" id="Layer_1" version="1.1" viewBox="0 0 1080 1080" width="1080"  height="1080" >
  <!-- Generator: Adobe Illustrator 30.2.1, SVG Export Plug-In . SVG Version: 2.1.1 Build 1)  -->
  <defs>
    <style>
      .st0 {
        fill: #fff;
      }
    </style>
  </defs>
  <path class="st0" d="M908.3,787.2c-7.7,63.3-56.5,113.2-119.8,120.8,0,0-100.5,15.6-248.5,15.6s-248.5-15.6-248.5-15.6c-63.3-7.7-112.1-57.5-119.8-120.8,0,0-15.3-112.9-15.3-247.2s15.3-247.2,15.3-247.2c7.7-63.3,56.5-113.1,119.8-120.8,0,0,100.5-15.6,248.5-15.6s248.5,15.6,248.5,15.6c63.3,7.6,112.1,57.5,119.8,120.8,0,0,15.3,112.9,15.3,247.2s-15.3,247.2-15.3,247.2M1048.9,198.4c-10.6-87.5-78.1-156.3-165.6-166.9,0,0-138.9-21.5-343.3-21.5S196.7,31.5,196.7,31.5C109.2,42.1,41.8,111,31.1,198.4c0,0-21.1,156-21.1,341.5s21.1,341.5,21.1,341.6c10.6,87.5,78.1,156.3,165.5,166.9,0,0,138.9,21.5,343.3,21.5s343.3-21.5,343.3-21.5c87.5-10.6,155-79.4,165.6-166.9,0,0,21.1-156,21.1-341.6s-21.1-341.5-21.1-341.5"/>
  <path class="st0" d="M596,440.8c23.1-3.3,45.7-4.7,72.7-4.2,26.1.6,53.7,3.1,78.1,7.6,0,0,8,1.9,8-6.6v-55.1c0-5-6.4-6.6-6.4-6.6-26.8-7-53.3-11-79.5-11.5-24.7-.4-49.3,2-73.9,7.4,0,0-6.1,1.9-6.1,7.3v54.5c0,10.1,7.1,7.4,7.1,7.4"/>
  <path class="st0" d="M403.5,474.5s82.7,0,82.7-69.5-82.7-69.4-82.7-69.4c0,0-82.7,0-82.7,69.4s82.7,69.5,82.7,69.5"/>
  <path class="st0" d="M761.3,614.4c-28.7,18-112.5,64-221.3,64s-192.6-46-221.3-64c0,0-10.7-7.6-10.7,6.5v28.2c0,8.5,9.5,17.4,9.5,17.4,28.3,22.1,117,84.1,222.5,84.1,105.5,0,194.2-62,222.5-84.1,0,0,9.4-8.9,9.4-17.4v-28.2c0-14.1-10.7-6.5-10.7-6.5"/>
</svg>