<svg xmlns:xlink="http://www.w3.org/1999/xlink" xmlns="http://www.w3.org/2000/svg" id="Layer_1" viewBox="0 0 132.17 33" width="132.17"  height="33" ><defs><style>.cls-1{fill:#7a7a7a;stroke-width:0px;}</style></defs><path class="cls-1" d="M128.18,13.43c-.6-.13-1.49-.21-2.35-.21-.75,0-1.38.07-1.8.25-.42.18-.66.47-.66.93s.28.86.72,1.19c.43.33,1,.62,1.57.86.28.13.56.23.82.34.54.21,1.06.42,1.65.84.6.43,1.05.99,1.33,1.67.12.34.2.72.2,1.13,0,1.32-.74,2.29-1.8,2.93-1.06.64-2.43.97-3.7.97-1,0-2.01-.18-2.87-.57v-2.15h.03c.36.14.85.27,1.38.38.53.12,1.11.18,1.66.18.89,0,1.62-.18,2.14-.48.51-.29.8-.7.8-1.18s-.28-.87-.7-1.2c-.43-.33-.99-.61-1.55-.84-.28-.12-.57-.22-.84-.33-.55-.21-1.05-.42-1.63-.83-.59-.41-1.07-.95-1.34-1.65-.15-.35-.22-.74-.22-1.17,0-1.24.63-2.1,1.56-2.65.92-.55,2.13-.78,3.31-.78.83,0,1.61.12,2.32.3l-.03,2.06ZM112.23,13.46v4.63h1.45c1.33,0,2.19-.23,2.72-.62.53-.39.71-.95.71-1.64s-.18-1.29-.71-1.71c-.53-.42-1.39-.66-2.72-.66h-1.45ZM109.94,24.15v-12.88h3.69c.85,0,1.77.11,2.63.38.86.27,1.63.72,2.21,1.42.58.69.93,1.6.93,2.84,0,.9-.23,1.63-.62,2.23-.39.6-.94,1.07-1.59,1.41.26.59.78,1.27,1.38,1.86.6.6,1.28,1.1,1.87,1.31v.11l-1.01,1.52c-.64,0-1.29-.28-1.9-.72-.61-.43-1.16-1.02-1.61-1.63-.45-.62-.79-1.25-.98-1.77-.42.07-.86.08-1.3.08h-1.4v3.85h-2.29ZM100.25,11.27h7.65v2.2h-5.36v3.18h5.22v2.2h-5.22v3.11h5.36v2.2h-7.65v-12.88ZM89.55,13.46v8.49h1.71c1.81,0,2.99-.61,3.73-1.44.73-.83,1.01-1.9,1.01-2.82,0-1.07-.41-2.13-1.23-2.92-.82-.78-2.05-1.31-3.69-1.31h-1.53ZM87.27,24.15v-12.88h4.27c2.1,0,3.81.72,5,1.89,1.19,1.16,1.85,2.78,1.85,4.53,0,1.6-.54,3.22-1.65,4.43-1.11,1.21-2.79,2.03-5.09,2.03h-4.38ZM77.08,15.58v8.56h-2.29v-12.88h2.29l5.35,8.57v-8.57h2.29v12.88h-2.29l-5.35-8.56ZM65.64,19.28h3.49l-1.74-5.06-1.75,5.06ZM61.55,24.15l4.5-13.08h2.68l4.51,13.08h-2.42l-.92-2.67h-5l-.92,2.67h-2.42ZM53.21,11.27h2.29v10.68h5.36v2.2h-7.65v-12.88ZM43.52,11.27h7.94v2.2h-5.66v3.18h5.46v2.2h-5.46v5.31h-2.29v-12.88ZM32.32,12.67h3.99v11.47h1.51v-11.47h3.99v-1.41h-9.48v1.41ZM28.82,24.15h1.5v-12.88h-1.5v12.88ZM19.15,23.77c.39.19.81.33,1.26.43.45.09.9.14,1.37.14.57,0,1.13-.08,1.69-.23.55-.15,1.04-.39,1.47-.71.43-.32.78-.72,1.04-1.2.26-.48.4-1.06.4-1.72,0-.36-.04-.67-.12-.94-.08-.27-.19-.51-.34-.73-.14-.21-.31-.39-.51-.55-.2-.16-.41-.31-.64-.47-.31-.2-.64-.39-1-.57-.35-.18-.69-.35-1.03-.52-.33-.17-.64-.33-.91-.48-.28-.15-.5-.3-.67-.45-.18-.16-.31-.34-.41-.55-.1-.21-.15-.48-.15-.8,0-.39.07-.71.22-.97.15-.25.34-.46.59-.61.25-.15.53-.25.84-.31.31-.05.63-.08.96-.08.41,0,.81.03,1.21.09.39.06.74.12,1.03.18l.03-.02v-1.29c-.35-.1-.72-.19-1.1-.25-.38-.06-.77-.09-1.17-.09-.51,0-1,.06-1.48.18-.48.12-.9.31-1.28.59-.37.27-.67.63-.89,1.07-.23.44-.34.99-.34,1.64,0,.59.09,1.08.27,1.49.18.4.43.73.74.98.19.16.44.32.74.48.31.16.63.33.97.5.34.17.67.34,1.01.51.33.17.62.34.88.5.37.23.65.48.85.76.19.28.29.64.29,1.07s-.08.75-.25,1.02c-.17.27-.39.48-.66.65-.27.16-.59.28-.94.35-.36.07-.72.11-1.1.11-.27,0-.54-.01-.8-.04-.26-.03-.51-.07-.76-.12-.25-.05-.48-.11-.7-.17-.22-.06-.41-.13-.57-.2h-.03v1.38ZM15.2,24.15h1.5v-12.88h-1.5v12.88ZM6.94,24.15h2.02l4.44-12.88h-1.56l-3.88,11.27-3.88-11.27h-1.56l4.43,12.88Z"/></svg>