<svg width="220" height="56" viewBox="0 0 220 56" fill="none" xmlns="http://www.w3.org/2000/svg">
<path d="M200.823 21.5666C199.941 21.371 198.632 21.2506 197.367 21.2506C196.264 21.2506 195.337 21.3559 194.719 21.6268C194.102 21.8977 193.749 22.3341 193.749 23.0263C193.749 23.7186 194.16 24.3205 194.808 24.8172C195.44 25.3138 196.278 25.7502 197.117 26.1114C197.529 26.307 197.94 26.4575 198.323 26.623C199.117 26.9391 199.882 27.2551 200.75 27.8871C201.632 28.5342 202.294 29.377 202.706 30.4003C202.882 30.912 203 31.4838 203 32.1008C203 34.0873 201.912 35.547 200.353 36.5102C198.793 37.4733 196.778 37.9699 194.91 37.9699C193.44 37.9699 191.954 37.699 190.689 37.1121V33.8766H190.733C191.263 34.0873 191.984 34.2829 192.763 34.4485C193.543 34.629 194.396 34.7193 195.205 34.7193C196.514 34.7193 197.587 34.4485 198.352 33.997C199.102 33.5606 199.529 32.9436 199.529 32.2212C199.529 31.4989 199.117 30.912 198.499 30.4153C197.867 29.9187 197.043 29.4974 196.22 29.1512C195.808 28.9707 195.381 28.8202 194.984 28.6546C194.175 28.3386 193.44 28.0226 192.587 27.4056C191.719 26.7886 191.013 25.9759 190.616 24.9225C190.395 24.3958 190.292 23.8089 190.292 23.1618C190.292 21.2957 191.219 20.0015 192.587 19.1738C193.94 18.3461 195.719 18 197.455 18C198.676 18 199.823 18.1806 200.867 18.4515L200.823 21.5515V21.5666ZM177.364 21.6117V28.5794H179.496C181.452 28.5794 182.717 28.2333 183.497 27.6463C184.276 27.0594 184.541 26.2167 184.541 25.1783C184.541 24.14 184.276 23.237 183.497 22.605C182.717 21.9729 181.452 21.6117 179.496 21.6117H177.364ZM173.995 37.699V18.316H179.423C180.673 18.316 182.026 18.4816 183.291 18.8879C184.556 19.2942 185.688 19.9714 186.542 21.0248C187.395 22.0632 187.909 23.4327 187.909 25.2987C187.909 26.6531 187.571 27.7517 186.997 28.6546C186.424 29.5576 185.615 30.2649 184.659 30.7765C185.041 31.6644 185.806 32.6877 186.689 33.5756C187.571 34.4786 188.571 35.231 189.439 35.547V35.7126L187.954 38C187.012 38 186.056 37.5786 185.159 36.9165C184.262 36.2694 183.453 35.3815 182.791 34.4635C182.129 33.5305 181.629 32.5824 181.35 31.7998C180.732 31.9052 180.085 31.9202 179.437 31.9202H177.378V37.7141H174.01L173.995 37.699ZM159.743 18.316H170.995V21.6268H163.111V26.4123H170.789V29.7231H163.111V34.4033H170.995V37.7141H159.743V18.3311V18.316ZM144.005 21.6117V34.3883H146.521C149.183 34.3883 150.918 33.4703 152.007 32.2212C153.08 30.9722 153.492 29.3619 153.492 27.9774C153.492 26.3672 152.889 24.772 151.683 23.5831C150.477 22.4093 148.668 21.6117 146.256 21.6117H144.005ZM140.652 37.699V18.316H146.932C150.021 18.316 152.536 19.3995 154.286 21.1603C156.037 22.9059 157.007 25.3439 157.007 27.9774C157.007 30.3853 156.213 32.8232 154.581 34.6441C152.948 36.465 150.477 37.699 147.094 37.699H140.652ZM125.664 24.8021V37.684H122.296V18.301H125.664L133.533 31.1979V18.301H136.901V37.684H133.533L125.664 24.8021ZM108.838 30.3702H113.971L111.412 22.7555L108.838 30.3702ZM102.822 37.699L109.441 18.015H113.383L120.016 37.699H116.457L115.104 33.681H107.75L106.397 37.699H102.837H102.822ZM90.5558 18.316H93.924V34.3883H101.808V37.699H90.5558V18.316ZM76.3036 18.316H87.9819V21.6268H79.6571V26.4123H87.6877V29.7231H79.6571V37.7141H76.2889V18.3311L76.3036 18.316ZM59.8304 20.4229H65.699V37.684H67.9199V20.4229H73.7885V18.301H59.8451V20.4229H59.8304ZM54.6826 37.699H56.8888V18.316H54.6826V37.699ZM40.4597 37.1272C41.0333 37.4131 41.6511 37.6238 42.313 37.7743C42.9748 37.9097 43.6367 37.985 44.328 37.985C45.1664 37.985 45.99 37.8646 46.8137 37.6388C47.6226 37.4131 48.3433 37.0519 48.9758 36.5704C49.6082 36.0888 50.123 35.4868 50.5054 34.7645C50.8878 34.0421 51.0938 33.1693 51.0938 32.1761C51.0938 31.6343 51.0349 31.1678 50.9173 30.7615C50.7996 30.3552 50.6378 29.994 50.4172 29.6629C50.2113 29.3469 49.9612 29.076 49.6671 28.8352C49.3729 28.5944 49.064 28.3687 48.7257 28.1279C48.2698 27.8269 47.7844 27.541 47.2549 27.2701C46.7401 26.9992 46.24 26.7434 45.74 26.4876C45.2546 26.2318 44.7986 25.991 44.4015 25.7652C43.9897 25.5395 43.6661 25.3138 43.4161 25.088C43.1513 24.8473 42.9601 24.5764 42.813 24.2603C42.666 23.9443 42.5924 23.538 42.5924 23.0564C42.5924 22.4695 42.6954 21.988 42.916 21.5967C43.1366 21.2205 43.4161 20.9044 43.7838 20.6787C44.1515 20.453 44.5633 20.3025 45.0193 20.2122C45.4752 20.1369 45.9459 20.0918 46.4313 20.0918C47.0343 20.0918 47.6226 20.1369 48.2109 20.2272C48.7846 20.3175 49.2994 20.4078 49.7259 20.4981L49.77 20.468V18.5267C49.2552 18.3762 48.711 18.2408 48.1521 18.1505C47.5932 18.0602 47.0196 18.015 46.4313 18.015C45.6811 18.015 44.9604 18.1053 44.2544 18.2859C43.5484 18.4665 42.9307 18.7524 42.3718 19.1738C41.8276 19.5801 41.3863 20.1219 41.0628 20.784C40.7245 21.4462 40.5627 22.2739 40.5627 23.2521C40.5627 24.14 40.6951 24.8774 40.9598 25.4944C41.2246 26.0963 41.5923 26.5929 42.0482 26.9691C42.3277 27.2099 42.6954 27.4507 43.1366 27.6915C43.5926 27.9323 44.0632 28.1881 44.5633 28.4439C45.0634 28.6998 45.5488 28.9556 46.0488 29.2114C46.5342 29.4673 46.9607 29.7231 47.3432 29.9639C47.8874 30.31 48.2992 30.6862 48.5934 31.1076C48.8728 31.529 49.0199 32.0707 49.0199 32.7178C49.0199 33.3649 48.9022 33.8465 48.6522 34.2528C48.4022 34.6591 48.0786 34.9752 47.6814 35.231C47.2843 35.4718 46.8137 35.6524 46.2989 35.7577C45.7694 35.8631 45.2399 35.9232 44.681 35.9232C44.2839 35.9232 43.8867 35.9082 43.5043 35.8631C43.1219 35.8179 42.7542 35.7577 42.3865 35.6825C42.0188 35.6072 41.6805 35.5169 41.3569 35.4266C41.0333 35.3363 40.7539 35.231 40.5186 35.1257H40.4744V37.2024L40.4597 37.1272ZM34.65 37.699H36.8562V18.316H34.65V37.699ZM22.501 37.699H25.4721L32.0025 18.316H29.708L24.0013 35.2761L18.2945 18.316H16L22.5157 37.699H22.501Z" fill="#181614"/>
</svg>
