<svg width="220" height="56" viewBox="0 0 220 56" fill="none" xmlns="http://www.w3.org/2000/svg">
<path d="M122.625 29.0309C118.996 29.0309 116.252 31.7479 116.252 35.2235C116.252 38.699 118.996 41.416 122.625 41.416C126.255 41.416 128.999 38.699 128.999 35.2235C128.999 31.7479 126.255 29.0309 122.625 29.0309ZM122.625 38.6445C120.678 38.6445 119.277 37.1025 119.277 35.2235C119.277 33.3443 120.673 31.8025 122.625 31.8025C124.578 31.8025 125.975 33.3443 125.975 35.2235C125.975 37.1025 124.578 38.6445 122.625 38.6445ZM116.052 26.8345V22.3624H111.146V26.8345H108.152V14.9105H111.146V19.6999H116.052V14.9105H119.026V26.8345H116.052ZM92.8777 35.2235C92.8777 37.2066 94.2394 38.6445 96.2069 38.6445C97.6187 38.6445 98.61 37.9305 99.0406 36.7356L102.049 37.2612C101.313 39.7798 99.1206 41.416 96.2219 41.416C92.5924 41.416 89.8489 38.818 89.8489 35.2235C89.8489 31.6289 92.5924 29.0309 96.2219 29.0309C99.1256 29.0309 101.313 30.6671 102.049 33.1857L99.0406 33.7113C98.61 32.5164 97.6137 31.8025 96.2069 31.8025C94.2394 31.8025 92.8777 33.2402 92.8777 35.2235ZM109.258 29.0309C105.629 29.0309 102.885 31.7479 102.885 35.2235C102.885 38.699 105.629 41.416 109.258 41.416C112.888 41.416 115.631 38.699 115.631 35.2235C115.631 31.7479 112.888 29.0309 109.258 29.0309ZM109.258 38.6445C107.311 38.6445 105.909 37.1025 105.909 35.2235C105.909 33.3443 107.306 31.8025 109.258 31.8025C111.211 31.8025 112.608 33.3443 112.608 35.2235C112.608 37.1025 111.211 38.6445 109.258 38.6445ZM93.1981 26.9039L89.248 14.9056H92.4171L94.6649 22.3078L97.2132 14.9056H99.6913L102.24 22.3078L104.487 14.9056H107.656L103.707 26.9039H100.873L98.4448 19.5909L96.0167 26.9039H93.1831H93.1981ZM134.556 17.5581H130.711V14.9105H141.374V17.5581H137.529V26.8345H134.556V17.5581ZM178.632 39.7501C178.632 40.6475 177.891 41.307 177.005 41.307C176.118 41.307 175.393 40.6475 175.393 39.7501C175.393 38.8527 176.133 38.228 177.005 38.228C177.876 38.228 178.632 38.8874 178.632 39.7501ZM155.057 29.2589H158.031V41.183H155.728L149.955 34.6434V41.183H146.962V29.2589H149.244L155.052 35.9771V29.2589H155.057ZM165.315 34.4847H171.763V41.183H169.53L169.405 39.7254C168.539 40.7764 167.282 41.411 165.595 41.411C161.826 41.411 159.182 38.7635 159.182 35.3424C159.182 31.6239 161.946 29.0309 165.61 29.0309C168.379 29.0309 170.792 30.4588 171.507 32.9725L168.479 33.503C167.963 32.1197 166.761 31.7132 165.681 31.7132C163.607 31.7132 162.211 33.1709 162.211 35.273C162.211 37.1472 163.573 38.709 165.7 38.709C167.097 38.709 168.164 38.0049 168.764 36.8496L165.31 36.815V34.4847H165.315ZM180.915 32.7098C180.915 32.9626 180.895 33.1956 180.854 33.4138C180.81 33.6418 180.739 33.8551 180.644 34.0484C180.559 34.217 180.474 34.3706 180.394 34.4996C180.304 34.6434 180.179 34.7871 180.019 34.9408C179.873 35.0797 179.758 35.1788 179.678 35.2482C179.598 35.3177 179.473 35.4119 179.313 35.5408C179.128 35.6796 178.993 35.7887 178.902 35.868C178.822 35.9374 178.722 36.0366 178.611 36.1654C178.522 36.2696 178.457 36.3787 178.422 36.4877C178.381 36.6117 178.361 36.7455 178.361 36.8993V37.4595H175.423V36.8993C175.423 36.5671 175.457 36.2547 175.533 35.9771C175.608 35.6994 175.693 35.4614 175.793 35.273C175.893 35.0797 176.039 34.8814 176.224 34.688C176.399 34.5046 176.544 34.3706 176.664 34.2765C176.774 34.1873 176.929 34.0732 177.125 33.9394C177.305 33.8104 177.44 33.7113 177.521 33.6419C177.6 33.5774 177.695 33.4832 177.806 33.3642C177.891 33.275 177.951 33.1808 177.981 33.0865C178.016 32.9775 178.036 32.8535 178.036 32.7147C178.036 32.4122 177.941 32.1792 177.741 32.0007C177.536 31.8124 177.295 31.7231 177 31.7231C176.704 31.7231 176.434 31.8173 176.209 32.0107C175.993 32.1941 175.888 32.437 175.883 32.7643V33.1113H173.094V32.7544C173.105 32.1644 173.22 31.619 173.445 31.1381C173.671 30.6522 173.981 30.2555 174.357 29.9481C174.722 29.6507 175.143 29.4226 175.593 29.2639C176.044 29.1102 176.519 29.0309 177.01 29.0309C177.5 29.0309 177.996 29.1102 178.447 29.2738C178.907 29.4375 179.323 29.6705 179.683 29.973C180.054 30.2803 180.349 30.677 180.57 31.1529C180.79 31.6289 180.9 32.1495 180.9 32.7098H180.915ZM142.331 29.2589H145.324V41.183H142.331V29.2589ZM151.857 27.0626C149.31 27.0626 147.001 25.9322 146.496 23.349L149.43 22.8384C149.625 23.8895 150.526 24.5588 151.943 24.5588C153.004 24.5588 153.645 24.1572 153.645 23.4878C153.645 23.0665 153.415 22.6301 152.369 22.4367L150.386 22.0153C148.013 21.5047 146.896 20.4387 146.896 18.5447C146.896 16.1599 148.844 14.6874 151.678 14.6874C153.515 14.6874 156.208 15.3319 156.754 18.1035L153.821 18.6141C153.66 17.7217 153.114 17.1069 151.838 17.1069C150.777 17.1069 150.086 17.5085 150.086 18.2819C150.086 18.9662 150.581 19.2636 151.537 19.457L153.219 19.809C155.432 20.2652 156.849 21.1576 156.849 23.2102C156.849 25.595 154.867 27.0675 151.852 27.0675L151.857 27.0626ZM136.919 34.4847L141.895 41.183H138.16L134.936 36.7307L133.164 38.7634V41.183H130.17V29.2589H133.164V34.7326L137.965 29.2589H141.505L136.919 34.4847ZM127.492 14.9056H124.623L119.507 26.8296H122.696L123.492 24.777H128.593L129.409 26.8296H132.599L127.497 14.9056H127.492ZM124.463 22.3078L126.04 18.2919L127.617 22.3078H124.463ZM146.075 15.7682C146.075 17.325 144.669 18.2175 144.669 18.2175H144.464V17.325C143.592 17.325 142.851 16.6656 142.851 15.7682C142.851 14.8708 143.592 14.2461 144.464 14.2461C145.335 14.2461 146.075 14.9105 146.075 15.7682Z" fill="#181614"/>
<path d="M77.8837 15.4855C75.4807 12.6992 71.3754 10.9936 66.319 10.6763C61.5029 7.42382 55.35 7.12138 49.4175 9.84833C44.0256 12.3322 40.7314 17.7117 40.8165 23.8992C38.2383 30.0125 38.4085 35.8481 41.3021 40.335C44.3661 45.0848 50.0733 47.8415 57.3626 48.0993C57.688 48.1092 58.0034 48.1142 58.3188 48.1142C69.4579 48.1142 75.2753 41.1531 76.8974 35.02C81.6985 29.1796 82.1441 20.4337 77.8837 15.4855ZM49.6978 10.4532C52.2912 9.25831 54.9294 8.66332 57.4627 8.66332C60.1311 8.66332 62.6944 9.32277 64.9823 10.6316C56.3363 10.5474 45.7978 14.4741 41.5325 22.3871C41.9579 17.1068 44.9869 12.6198 49.6978 10.4532ZM41.5524 23.8745C45.3924 15.0443 57.0372 10.83 66.0937 11.3307C69.483 13.6808 71.826 17.3348 72.7571 21.6831C68.3816 18.4702 61.693 17.5927 56.126 19.5858C50.7992 21.4946 47.3248 25.6643 46.3436 31.3214C46.0833 32.8385 46.0732 34.2863 46.3085 35.6398C44.4411 33.7955 43.0694 31.5544 42.3235 29.1002C41.8028 27.3897 41.5224 25.6792 41.4824 24.0232L41.5475 23.8695L41.5524 23.8745ZM67.7658 40.0673C67.6908 40.0871 67.6156 40.107 67.5405 40.1268C59.6505 42.1199 52.231 40.7763 47.1646 36.4331C46.744 34.906 46.689 33.2253 46.9994 31.4355C47.9406 26.0213 51.2598 22.0351 56.3513 20.2105C61.9734 18.1976 68.772 19.209 72.9374 22.6597C73.453 25.8378 73.2128 29.1895 72.2215 32.6105C71.3453 35.6349 69.8485 38.1436 67.7658 40.0624V40.0673ZM66.5993 41.0242C63.1149 43.6073 58.5841 44.4998 54.4438 43.3347C51.1897 42.4224 48.7416 40.3648 47.5751 37.6131C51.1096 40.2954 55.6053 41.6886 60.5416 41.6886C62.4991 41.6886 64.5317 41.4655 66.5993 41.0242ZM57.3826 47.4349C50.3186 47.187 44.8066 44.5394 41.8629 39.9781C39.3046 36.0067 38.9792 30.9099 40.9117 25.4957C41.0418 26.7451 41.3021 28.0194 41.6876 29.2936C42.5588 32.1642 44.2509 34.7622 46.5789 36.8C47.6052 40.2756 50.4037 42.8885 54.2687 43.9692C59.0548 45.3129 64.3515 44.0436 68.1062 40.6573C71.0901 39.8343 73.7334 38.3072 75.8311 36.2001C73.7535 41.8968 67.926 47.8018 57.3876 47.43L57.3826 47.4349ZM76.2866 34.7127C74.4042 36.9587 71.9411 38.6493 69.1125 39.6508C70.8247 37.7867 72.0913 35.4911 72.8673 32.794C73.7985 29.5613 74.0788 26.3931 73.7084 23.3589C74.8999 24.5389 75.741 25.8874 76.2115 27.3897C76.9124 29.6357 76.9375 32.1642 76.2916 34.7127H76.2866ZM76.8474 27.1963C76.2666 25.3371 75.1602 23.696 73.5581 22.3127C72.7822 17.8456 70.5894 14.0229 67.3352 11.4299C71.7209 11.8909 75.2554 13.4626 77.373 15.9169C81.1729 20.3246 81.0277 27.9252 77.2278 33.4732C77.5833 31.2867 77.4531 29.1449 76.8474 27.1963Z" fill="#181614"/>
</svg>
