<svg width="220" height="56" viewBox="0 0 220 56" fill="none" xmlns="http://www.w3.org/2000/svg">
<path d="M99.6254 29.0309C95.9962 29.0309 93.252 31.7479 93.252 35.2235C93.252 38.699 95.9962 41.416 99.6254 41.416C103.255 41.416 105.999 38.699 105.999 35.2235C105.999 31.7479 103.255 29.0309 99.6254 29.0309ZM99.6254 38.6445C97.6781 38.6445 96.2766 37.1025 96.2766 35.2235C96.2766 33.3443 97.6731 31.8025 99.6254 31.8025C101.578 31.8025 102.975 33.3443 102.975 35.2235C102.975 37.1025 101.578 38.6445 99.6254 38.6445ZM93.0522 26.8345V22.3624H88.1457V26.8345H85.1521V14.9105H88.1457V19.6999H93.0522V14.9105H96.0256V26.8345H93.0522ZM69.8777 35.2235C69.8777 37.2066 71.2394 38.6445 73.2069 38.6445C74.6187 38.6445 75.61 37.9305 76.0406 36.7356L79.0493 37.2612C78.3134 39.7798 76.1206 41.416 73.2219 41.416C69.5924 41.416 66.8489 38.818 66.8489 35.2235C66.8489 31.6289 69.5924 29.0309 73.2219 29.0309C76.1256 29.0309 78.3134 30.6671 79.0493 33.1857L76.0406 33.7113C75.61 32.5164 74.6137 31.8025 73.2069 31.8025C71.2394 31.8025 69.8777 33.2402 69.8777 35.2235ZM86.2585 29.0309C82.6289 29.0309 79.8854 31.7479 79.8854 35.2235C79.8854 38.699 82.6289 41.416 86.2585 41.416C89.8881 41.416 92.6315 38.699 92.6315 35.2235C92.6315 31.7479 89.8881 29.0309 86.2585 29.0309ZM86.2585 38.6445C84.311 38.6445 82.9092 37.1025 82.9092 35.2235C82.9092 33.3443 84.3061 31.8025 86.2585 31.8025C88.2112 31.8025 89.6077 33.3443 89.6077 35.2235C89.6077 37.1025 88.2112 38.6445 86.2585 38.6445ZM70.1981 26.9039L66.248 14.9056H69.4171L71.6649 22.3078L74.2132 14.9056H76.6913L79.2396 22.3078L81.4874 14.9056H84.6565L80.7065 26.9039H77.8729L75.4448 19.5909L73.0167 26.9039H70.1831H70.1981ZM111.556 17.5581H107.711V14.9105H118.374V17.5581H114.529V26.8345H111.556V17.5581ZM155.632 39.7501C155.632 40.6475 154.891 41.307 154.005 41.307C153.118 41.307 152.393 40.6475 152.393 39.7501C152.393 38.8527 153.133 38.228 154.005 38.228C154.876 38.228 155.632 38.8874 155.632 39.7501ZM132.057 29.2589H135.031V41.183H132.728L126.955 34.6434V41.183H123.962V29.2589H126.244L132.052 35.9771V29.2589H132.057ZM142.315 34.4847H148.763V41.183H146.53L146.405 39.7254C145.539 40.7764 144.282 41.411 142.595 41.411C138.826 41.411 136.182 38.7635 136.182 35.3424C136.182 31.6239 138.946 29.0309 142.61 29.0309C145.379 29.0309 147.792 30.4588 148.507 32.9725L145.479 33.503C144.963 32.1197 143.761 31.7132 142.681 31.7132C140.607 31.7132 139.211 33.1709 139.211 35.273C139.211 37.1472 140.573 38.709 142.7 38.709C144.097 38.709 145.164 38.0049 145.764 36.8496L142.31 36.815V34.4847H142.315ZM157.915 32.7098C157.915 32.9626 157.895 33.1956 157.854 33.4138C157.81 33.6418 157.739 33.8551 157.644 34.0484C157.559 34.217 157.474 34.3706 157.394 34.4996C157.304 34.6434 157.179 34.7871 157.019 34.9408C156.873 35.0797 156.758 35.1788 156.678 35.2482C156.598 35.3177 156.473 35.4119 156.313 35.5408C156.128 35.6796 155.993 35.7887 155.902 35.868C155.822 35.9374 155.722 36.0366 155.611 36.1654C155.522 36.2696 155.457 36.3787 155.422 36.4877C155.381 36.6117 155.361 36.7455 155.361 36.8993V37.4595H152.423V36.8993C152.423 36.5671 152.457 36.2547 152.533 35.9771C152.608 35.6994 152.693 35.4614 152.793 35.273C152.893 35.0797 153.039 34.8814 153.224 34.688C153.399 34.5046 153.544 34.3706 153.664 34.2765C153.774 34.1873 153.929 34.0732 154.125 33.9394C154.305 33.8104 154.44 33.7113 154.521 33.6419C154.6 33.5774 154.695 33.4832 154.806 33.3642C154.891 33.275 154.951 33.1808 154.981 33.0865C155.016 32.9775 155.036 32.8535 155.036 32.7147C155.036 32.4122 154.941 32.1792 154.741 32.0007C154.536 31.8124 154.295 31.7231 154 31.7231C153.704 31.7231 153.434 31.8173 153.209 32.0107C152.993 32.1941 152.888 32.437 152.883 32.7643V33.1113H150.094V32.7544C150.105 32.1644 150.22 31.619 150.445 31.1381C150.671 30.6522 150.981 30.2555 151.357 29.9481C151.722 29.6507 152.143 29.4226 152.593 29.2639C153.044 29.1102 153.519 29.0309 154.01 29.0309C154.5 29.0309 154.996 29.1102 155.447 29.2738C155.907 29.4375 156.323 29.6705 156.683 29.973C157.054 30.2803 157.349 30.677 157.57 31.1529C157.79 31.6289 157.9 32.1495 157.9 32.7098H157.915ZM119.331 29.2589H122.324V41.183H119.331V29.2589ZM128.857 27.0626C126.31 27.0626 124.001 25.9322 123.496 23.349L126.43 22.8384C126.625 23.8895 127.526 24.5588 128.943 24.5588C130.004 24.5588 130.645 24.1572 130.645 23.4878C130.645 23.0665 130.415 22.6301 129.369 22.4367L127.386 22.0153C125.013 21.5047 123.896 20.4387 123.896 18.5447C123.896 16.1599 125.844 14.6874 128.678 14.6874C130.515 14.6874 133.208 15.3319 133.754 18.1035L130.821 18.6141C130.66 17.7217 130.114 17.1069 128.838 17.1069C127.777 17.1069 127.086 17.5085 127.086 18.2819C127.086 18.9662 127.581 19.2636 128.537 19.457L130.219 19.809C132.432 20.2652 133.849 21.1576 133.849 23.2102C133.849 25.595 131.867 27.0675 128.852 27.0675L128.857 27.0626ZM113.919 34.4847L118.895 41.183H115.16L111.936 36.7307L110.164 38.7634V41.183H107.17V29.2589H110.164V34.7326L114.965 29.2589H118.505L113.919 34.4847ZM104.492 14.9056H101.623L96.5067 26.8296H99.6959L100.492 24.777H105.593L106.409 26.8296H109.599L104.497 14.9056H104.492ZM101.463 22.3078L103.04 18.2919L104.617 22.3078H101.463ZM123.075 15.7682C123.075 17.325 121.669 18.2175 121.669 18.2175H121.464V17.325C120.592 17.325 119.851 16.6656 119.851 15.7682C119.851 14.8708 120.592 14.2461 121.464 14.2461C122.335 14.2461 123.075 14.9105 123.075 15.7682Z" fill="#181614"/>
<path d="M54.8837 15.4855C52.4807 12.6992 48.3754 10.9936 43.319 10.6763C38.5029 7.42382 32.35 7.12138 26.4175 9.84833C21.0256 12.3322 17.7314 17.7117 17.8165 23.8992C15.2383 30.0125 15.4085 35.8481 18.3021 40.335C21.3661 45.0848 27.0733 47.8415 34.3626 48.0993C34.688 48.1092 35.0034 48.1142 35.3188 48.1142C46.4579 48.1142 52.2753 41.1531 53.8974 35.02C58.6985 29.1796 59.1441 20.4337 54.8837 15.4855ZM26.6978 10.4532C29.2912 9.25831 31.9294 8.66332 34.4627 8.66332C37.1311 8.66332 39.6944 9.32277 41.9823 10.6316C33.3363 10.5474 22.7978 14.4741 18.5325 22.3871C18.9579 17.1068 21.9869 12.6198 26.6978 10.4532ZM18.5524 23.8745C22.3924 15.0443 34.0372 10.83 43.0937 11.3307C46.483 13.6808 48.826 17.3348 49.7571 21.6831C45.3816 18.4702 38.693 17.5927 33.126 19.5858C27.7992 21.4946 24.3248 25.6643 23.3436 31.3214C23.0833 32.8385 23.0732 34.2863 23.3085 35.6398C21.4411 33.7955 20.0694 31.5544 19.3235 29.1002C18.8028 27.3897 18.5224 25.6792 18.4824 24.0232L18.5475 23.8695L18.5524 23.8745ZM44.7658 40.0673C44.6908 40.0871 44.6156 40.107 44.5405 40.1268C36.6505 42.1199 29.231 40.7763 24.1646 36.4331C23.744 34.906 23.689 33.2253 23.9994 31.4355C24.9406 26.0213 28.2598 22.0351 33.3513 20.2105C38.9734 18.1976 45.772 19.209 49.9374 22.6597C50.453 25.8378 50.2128 29.1895 49.2215 32.6105C48.3453 35.6349 46.8485 38.1436 44.7658 40.0624V40.0673ZM43.5993 41.0242C40.1149 43.6073 35.5841 44.4998 31.4438 43.3347C28.1897 42.4224 25.7416 40.3648 24.5751 37.6131C28.1096 40.2954 32.6053 41.6886 37.5416 41.6886C39.4991 41.6886 41.5317 41.4655 43.5993 41.0242ZM34.3826 47.4349C27.3186 47.187 21.8066 44.5394 18.8629 39.9781C16.3046 36.0067 15.9792 30.9099 17.9117 25.4957C18.0418 26.7451 18.3021 28.0194 18.6876 29.2936C19.5588 32.1642 21.2509 34.7622 23.5789 36.8C24.6052 40.2756 27.4037 42.8885 31.2687 43.9692C36.0548 45.3129 41.3515 44.0436 45.1062 40.6573C48.0901 39.8343 50.7334 38.3072 52.8311 36.2001C50.7535 41.8968 44.926 47.8018 34.3876 47.43L34.3826 47.4349ZM53.2866 34.7127C51.4042 36.9587 48.9411 38.6493 46.1125 39.6508C47.8247 37.7867 49.0913 35.4911 49.8673 32.794C50.7985 29.5613 51.0788 26.3931 50.7084 23.3589C51.8999 24.5389 52.741 25.8874 53.2115 27.3897C53.9124 29.6357 53.9375 32.1642 53.2916 34.7127H53.2866ZM53.8474 27.1963C53.2666 25.3371 52.1602 23.696 50.5581 22.3127C49.7822 17.8456 47.5894 14.0229 44.3352 11.4299C48.7209 11.8909 52.2554 13.4626 54.373 15.9169C58.1729 20.3246 58.0277 27.9252 54.2278 33.4732C54.5833 31.2867 54.4531 29.1449 53.8474 27.1963Z" fill="#181614"/>
</svg>
