<svg xmlns:xlink="http://www.w3.org/1999/xlink" xmlns="http://www.w3.org/2000/svg" width="200" height="66" viewBox="0 0 200 66" fill="none">
<path d="M114.589 34.254C110.267 34.254 106.999 37.5166 106.999 41.6901C106.999 45.8636 110.267 49.1261 114.589 49.1261C118.912 49.1261 122.179 45.8636 122.179 41.6901C122.179 37.5166 118.912 34.254 114.589 34.254ZM114.589 45.7981C112.27 45.7981 110.601 43.9465 110.601 41.6901C110.601 39.4336 112.264 37.5821 114.589 37.5821C116.914 37.5821 118.578 39.4336 118.578 41.6901C118.578 43.9465 116.914 45.7981 114.589 45.7981ZM106.761 31.6165V26.2463H100.918V31.6165H97.3529V17.298H100.918V23.0492H106.761V17.298H110.302V31.6165H106.761ZM79.1628 41.6901C79.1628 44.0715 80.7845 45.7981 83.1275 45.7981C84.8088 45.7981 85.9893 44.9407 86.5021 43.5059L90.0852 44.137C89.2088 47.1614 86.5974 49.1261 83.1454 49.1261C78.823 49.1261 75.5558 46.0064 75.5558 41.6901C75.5558 37.3737 78.823 34.254 83.1454 34.254C86.6034 34.254 89.2088 36.2187 90.0852 39.2431L86.5021 39.8742C85.9893 38.4394 84.8029 37.5821 83.1275 37.5821C80.7845 37.5821 79.1628 39.3086 79.1628 41.6901ZM98.6705 34.254C94.3481 34.254 91.0809 37.5166 91.0809 41.6901C91.0809 45.8636 94.3481 49.1261 98.6705 49.1261C102.993 49.1261 106.26 45.8636 106.26 41.6901C106.26 37.5166 102.993 34.254 98.6705 34.254ZM98.6705 45.7981C96.3513 45.7981 94.6819 43.9465 94.6819 41.6901C94.6819 39.4336 96.3454 37.5821 98.6705 37.5821C100.996 37.5821 102.659 39.4336 102.659 41.6901C102.659 43.9465 100.996 45.7981 98.6705 45.7981ZM79.5444 31.6999L74.8403 17.2921H78.6143L81.2912 26.1808L84.3259 17.2921H87.2771L90.3118 26.1808L92.9887 17.2921H96.7627L92.0587 31.6999H88.6842L85.7926 22.9183L82.901 31.6999H79.5265H79.5444ZM128.797 20.4773H124.218V17.298H136.917V20.4773H132.338V31.6165H128.797V20.4773ZM181.286 47.1257C181.286 48.2033 180.404 48.9952 179.349 48.9952C178.293 48.9952 177.429 48.2033 177.429 47.1257C177.429 46.0481 178.311 45.298 179.349 45.298C180.386 45.298 181.286 46.0898 181.286 47.1257ZM153.211 34.5278H156.753V48.8463H154.01L147.136 40.9935V48.8463H143.571V34.5278H146.289L153.205 42.595V34.5278H153.211ZM165.427 40.803H173.106V48.8463H170.447L170.298 47.096C169.267 48.3581 167.77 49.1202 165.761 49.1202C161.272 49.1202 158.124 45.941 158.124 41.8329C158.124 37.3677 161.415 34.254 165.779 34.254C169.076 34.254 171.95 35.9686 172.802 38.9871L169.195 39.6241C168.581 37.9631 167.15 37.4749 165.863 37.4749C163.394 37.4749 161.731 39.2253 161.731 41.7496C161.731 44.0001 163.353 45.8755 165.886 45.8755C167.55 45.8755 168.82 45.03 169.535 43.6428L165.421 43.6012V40.803H165.427ZM184.005 38.6716C184.005 38.9752 183.981 39.255 183.933 39.517C183.88 39.7908 183.796 40.0469 183.683 40.279C183.582 40.4815 183.48 40.666 183.385 40.8208C183.278 40.9935 183.129 41.1661 182.938 41.3507C182.765 41.5174 182.628 41.6365 182.532 41.7198C182.437 41.8032 182.288 41.9163 182.097 42.0711C181.877 42.2378 181.716 42.3688 181.608 42.464C181.513 42.5474 181.394 42.6665 181.262 42.8212C181.155 42.9463 181.078 43.0773 181.036 43.2082C180.988 43.3571 180.964 43.5178 180.964 43.7024V44.3751H177.465V43.7024C177.465 43.3035 177.506 42.9284 177.596 42.595C177.685 42.2616 177.787 41.9758 177.906 41.7496C178.025 41.5174 178.198 41.2793 178.419 41.0471C178.627 40.8268 178.8 40.666 178.943 40.5529C179.074 40.4458 179.259 40.3088 179.492 40.1481C179.706 39.9933 179.867 39.8742 179.963 39.7909C180.058 39.7135 180.171 39.6003 180.303 39.4574C180.404 39.3503 180.476 39.2372 180.511 39.124C180.553 38.9931 180.577 38.8442 180.577 38.6775C180.577 38.3143 180.464 38.0345 180.225 37.8202C179.981 37.594 179.694 37.4868 179.343 37.4868C178.991 37.4868 178.669 37.5999 178.401 37.8321C178.144 38.0524 178.019 38.3441 178.013 38.7371V39.1538H174.692V38.7252C174.704 38.0167 174.841 37.3618 175.11 36.7843C175.378 36.2008 175.748 35.7245 176.195 35.3554C176.63 34.9982 177.131 34.7243 177.667 34.5338C178.204 34.3492 178.77 34.254 179.355 34.254C179.939 34.254 180.529 34.3492 181.066 34.5457C181.614 34.7422 182.109 35.022 182.538 35.3852C182.98 35.7543 183.331 36.2306 183.594 36.8021C183.856 37.3737 183.987 37.9988 183.987 38.6716H184.005ZM138.056 34.5278H141.621V48.8463H138.056V34.5278ZM149.401 31.8904C146.367 31.8904 143.618 30.533 143.016 27.4311L146.51 26.8179C146.742 28.0801 147.816 28.8838 149.503 28.8838C150.767 28.8838 151.53 28.4016 151.53 27.5978C151.53 27.0918 151.256 26.5678 150.01 26.3356L147.649 25.8296C144.823 25.2164 143.493 23.9363 143.493 21.662C143.493 18.7983 145.812 17.0301 149.187 17.0301C151.375 17.0301 154.582 17.8041 155.232 21.1322L151.739 21.7454C151.548 20.6737 150.898 19.9355 149.378 19.9355C148.114 19.9355 147.291 20.4177 147.291 21.3465C147.291 22.1681 147.881 22.5253 149.02 22.7575L151.023 23.1802C153.658 23.728 155.346 24.7996 155.346 27.2644C155.346 30.1281 152.985 31.8963 149.395 31.8963L149.401 31.8904ZM131.611 40.803L137.537 48.8463H133.089L129.25 43.5L127.139 45.9409V48.8463H123.574V34.5278H127.139V41.1006L132.857 34.5278H137.072L131.611 40.803ZM120.384 17.2921H116.968L110.875 31.6106H114.673L115.621 29.1458H121.696L122.668 31.6106H126.466L120.39 17.2921H120.384ZM116.777 26.1808L118.655 21.3584L120.533 26.1808H116.777ZM142.515 18.328C142.515 20.1974 140.84 21.2691 140.84 21.2691H140.596V20.1974C139.558 20.1974 138.676 19.4056 138.676 18.328C138.676 17.2504 139.558 16.5002 140.596 16.5002C141.633 16.5002 142.515 17.298 142.515 18.328Z" fill="black"/>
<path d="M61.3061 17.9887C58.4444 14.6428 53.5555 12.5947 47.5339 12.2137C41.7984 8.30812 34.4711 7.94495 27.4061 11.2195C20.985 14.2022 17.0619 20.6619 17.1633 28.092C14.0929 35.4329 14.2956 42.4403 17.7416 47.8283C21.3904 53.5319 28.1871 56.8421 36.8678 57.1517C37.2553 57.1636 37.6309 57.1696 38.0065 57.1696C51.272 57.1696 58.1999 48.8107 60.1316 41.446C65.8492 34.4327 66.3798 23.9305 61.3061 17.9887ZM27.7399 11.9458C30.8283 10.511 33.9702 9.79653 36.987 9.79653C40.1648 9.79653 43.2174 10.5884 45.942 12.1601C35.6456 12.0589 23.0955 16.7742 18.0159 26.2762C18.5226 19.9356 22.1297 14.5475 27.7399 11.9458ZM18.0397 28.0623C22.6126 17.4589 36.4803 12.3983 47.2656 12.9996C51.3019 15.8216 54.0921 20.2094 55.201 25.4308C49.9902 21.5728 42.0249 20.519 35.3952 22.9124C29.0516 25.2045 24.9139 30.2115 23.7454 37.0046C23.4354 38.8264 23.4234 40.5649 23.7036 42.1902C21.4798 39.9755 19.8462 37.2844 18.9579 34.3374C18.3378 32.2834 18.0039 30.2294 17.9563 28.2409L18.0338 28.0563L18.0397 28.0623ZM49.2569 47.5068C49.1675 47.5306 49.078 47.5545 48.9886 47.5783C39.5924 49.9716 30.7567 48.3582 24.7231 43.1428C24.2223 41.3091 24.1568 39.2908 24.5264 37.1416C25.6473 30.6402 29.6001 25.8535 35.6635 23.6625C42.3588 21.2454 50.4552 22.4599 55.4157 26.6036C56.0297 30.4199 55.7436 34.4446 54.5631 38.5526C53.5197 42.1843 51.7371 45.1968 49.2569 47.5009V47.5068ZM47.8677 48.6559C43.7182 51.7577 38.3225 52.8294 33.3919 51.4303C29.5166 50.3348 26.6012 47.8641 25.212 44.5598C29.4212 47.7807 34.7751 49.4537 40.6537 49.4537C42.9848 49.4537 45.4054 49.1858 47.8677 48.6559ZM36.8916 56.3539C28.4792 56.0562 21.915 52.877 18.4094 47.3997C15.3628 42.6308 14.9752 36.5105 17.2766 30.0091C17.4316 31.5094 17.7416 33.0395 18.2007 34.5696C19.2381 38.0167 21.2533 41.1364 24.0256 43.5834C25.2478 47.7569 28.5806 50.8945 33.1833 52.1923C38.883 53.8058 45.1908 52.2816 49.6623 48.2153C53.2157 47.227 56.3636 45.3933 58.8617 42.863C56.3875 49.7037 49.4477 56.7945 36.8976 56.348L36.8916 56.3539ZM59.4042 41.0769C57.1625 43.7739 54.2292 45.8041 50.8607 47.0067C52.8997 44.7682 54.4081 42.0116 55.3322 38.7729C56.4411 34.8911 56.775 31.0867 56.3338 27.4431C57.7528 28.8601 58.7544 30.4794 59.3148 32.2834C60.1495 34.9804 60.1793 38.0167 59.4102 41.0769H59.4042ZM60.072 32.0512C59.3804 29.8186 58.0628 27.8479 56.1549 26.1869C55.2308 20.8227 52.6195 16.2324 48.7441 13.1187C53.9669 13.6723 58.1761 15.5596 60.698 18.5067C65.2232 23.7995 65.0503 32.9264 60.5251 39.5885C60.9484 36.963 60.7934 34.391 60.072 32.0512Z" fill="black"/>
</svg>